G04 EAGLE Gerber RS-274X export*
G75*
%MOMM*%
%FSLAX34Y34*%
%LPD*%
%INTop Copper*%
%IPPOS*%
%AMOC8*
5,1,8,0,0,1.08239X$1,22.5*%
G01*
%ADD10C,0.152400*%
%ADD11C,1.422400*%
%ADD12R,1.350000X0.400000*%
%ADD13C,1.875000*%
%ADD14C,2.250000*%
%ADD15C,1.600000*%
%ADD16C,1.509600*%
%ADD17C,1.879600*%
%ADD18P,1.539592X8X22.500000*%
%ADD19P,1.539592X8X112.500000*%
%ADD20P,1.539592X8X292.500000*%
%ADD21C,1.422400*%
%ADD22C,1.629600*%
%ADD23P,1.539592X8X202.500000*%
%ADD24P,2.034460X8X112.500000*%
%ADD25C,0.406400*%
%ADD26C,0.858000*%
%ADD27C,0.406400*%


D10*
X153162Y877062D02*
X158581Y893318D01*
X163999Y877062D01*
X162645Y881126D02*
X154517Y881126D01*
X826262Y898793D02*
X830778Y898793D01*
X830778Y898794D02*
X830911Y898792D01*
X831043Y898786D01*
X831175Y898776D01*
X831307Y898763D01*
X831439Y898745D01*
X831569Y898724D01*
X831700Y898699D01*
X831829Y898670D01*
X831957Y898637D01*
X832085Y898601D01*
X832211Y898561D01*
X832336Y898517D01*
X832460Y898469D01*
X832582Y898418D01*
X832703Y898363D01*
X832822Y898305D01*
X832940Y898243D01*
X833055Y898178D01*
X833169Y898109D01*
X833280Y898038D01*
X833389Y897962D01*
X833496Y897884D01*
X833601Y897803D01*
X833703Y897718D01*
X833803Y897631D01*
X833900Y897541D01*
X833995Y897448D01*
X834086Y897352D01*
X834175Y897254D01*
X834261Y897153D01*
X834344Y897049D01*
X834424Y896943D01*
X834500Y896835D01*
X834574Y896725D01*
X834644Y896612D01*
X834711Y896498D01*
X834774Y896381D01*
X834834Y896263D01*
X834891Y896143D01*
X834944Y896021D01*
X834993Y895898D01*
X835039Y895774D01*
X835081Y895648D01*
X835119Y895521D01*
X835154Y895393D01*
X835185Y895264D01*
X835212Y895135D01*
X835235Y895004D01*
X835255Y894873D01*
X835270Y894741D01*
X835282Y894609D01*
X835290Y894477D01*
X835294Y894344D01*
X835294Y894212D01*
X835290Y894079D01*
X835282Y893947D01*
X835270Y893815D01*
X835255Y893683D01*
X835235Y893552D01*
X835212Y893421D01*
X835185Y893292D01*
X835154Y893163D01*
X835119Y893035D01*
X835081Y892908D01*
X835039Y892782D01*
X834993Y892658D01*
X834944Y892535D01*
X834891Y892413D01*
X834834Y892293D01*
X834774Y892175D01*
X834711Y892058D01*
X834644Y891944D01*
X834574Y891831D01*
X834500Y891721D01*
X834424Y891613D01*
X834344Y891507D01*
X834261Y891403D01*
X834175Y891302D01*
X834086Y891204D01*
X833995Y891108D01*
X833900Y891015D01*
X833803Y890925D01*
X833703Y890838D01*
X833601Y890753D01*
X833496Y890672D01*
X833389Y890594D01*
X833280Y890518D01*
X833169Y890447D01*
X833055Y890378D01*
X832940Y890313D01*
X832822Y890251D01*
X832703Y890193D01*
X832582Y890138D01*
X832460Y890087D01*
X832336Y890039D01*
X832211Y889995D01*
X832085Y889955D01*
X831957Y889919D01*
X831829Y889886D01*
X831700Y889857D01*
X831569Y889832D01*
X831439Y889811D01*
X831307Y889793D01*
X831175Y889780D01*
X831043Y889770D01*
X830911Y889764D01*
X830778Y889762D01*
X826262Y889762D01*
X826262Y906018D01*
X830778Y906018D01*
X830897Y906016D01*
X831017Y906010D01*
X831136Y906000D01*
X831254Y905986D01*
X831373Y905969D01*
X831490Y905947D01*
X831607Y905922D01*
X831722Y905892D01*
X831837Y905859D01*
X831951Y905822D01*
X832063Y905782D01*
X832174Y905737D01*
X832283Y905689D01*
X832391Y905638D01*
X832497Y905583D01*
X832601Y905524D01*
X832703Y905462D01*
X832803Y905397D01*
X832901Y905328D01*
X832997Y905256D01*
X833090Y905181D01*
X833180Y905104D01*
X833268Y905023D01*
X833353Y904939D01*
X833435Y904852D01*
X833515Y904763D01*
X833591Y904671D01*
X833665Y904577D01*
X833735Y904480D01*
X833802Y904382D01*
X833866Y904281D01*
X833926Y904177D01*
X833983Y904072D01*
X834036Y903965D01*
X834086Y903857D01*
X834132Y903747D01*
X834174Y903635D01*
X834213Y903522D01*
X834248Y903408D01*
X834279Y903293D01*
X834307Y903176D01*
X834330Y903059D01*
X834350Y902942D01*
X834366Y902823D01*
X834378Y902704D01*
X834386Y902585D01*
X834390Y902466D01*
X834390Y902346D01*
X834386Y902227D01*
X834378Y902108D01*
X834366Y901989D01*
X834350Y901870D01*
X834330Y901753D01*
X834307Y901636D01*
X834279Y901519D01*
X834248Y901404D01*
X834213Y901290D01*
X834174Y901177D01*
X834132Y901065D01*
X834086Y900955D01*
X834036Y900847D01*
X833983Y900740D01*
X833926Y900635D01*
X833866Y900531D01*
X833802Y900430D01*
X833735Y900332D01*
X833665Y900235D01*
X833591Y900141D01*
X833515Y900049D01*
X833435Y899960D01*
X833353Y899873D01*
X833268Y899789D01*
X833180Y899708D01*
X833090Y899631D01*
X832997Y899556D01*
X832901Y899484D01*
X832803Y899415D01*
X832703Y899350D01*
X832601Y899288D01*
X832497Y899229D01*
X832391Y899174D01*
X832283Y899123D01*
X832174Y899075D01*
X832063Y899030D01*
X831951Y898990D01*
X831837Y898953D01*
X831722Y898920D01*
X831607Y898890D01*
X831490Y898865D01*
X831373Y898843D01*
X831254Y898826D01*
X831136Y898812D01*
X831017Y898802D01*
X830897Y898796D01*
X830778Y898794D01*
X51562Y29718D02*
X51562Y13462D01*
X56981Y20687D02*
X51562Y29718D01*
X56981Y20687D02*
X62399Y29718D01*
X62399Y13462D01*
X70210Y13462D02*
X77435Y13462D01*
X70210Y13462D02*
X70210Y29718D01*
X77435Y29718D01*
X75629Y22493D02*
X70210Y22493D01*
X83207Y17074D02*
X86819Y29718D01*
X83207Y17074D02*
X92238Y17074D01*
X89528Y13462D02*
X89528Y20687D01*
X98838Y13462D02*
X103353Y13462D01*
X103486Y13464D01*
X103618Y13470D01*
X103750Y13480D01*
X103882Y13493D01*
X104014Y13511D01*
X104144Y13532D01*
X104275Y13557D01*
X104404Y13586D01*
X104532Y13619D01*
X104660Y13655D01*
X104786Y13695D01*
X104911Y13739D01*
X105035Y13787D01*
X105157Y13838D01*
X105278Y13893D01*
X105397Y13951D01*
X105515Y14013D01*
X105630Y14078D01*
X105744Y14147D01*
X105855Y14218D01*
X105964Y14294D01*
X106071Y14372D01*
X106176Y14453D01*
X106278Y14538D01*
X106378Y14625D01*
X106475Y14715D01*
X106570Y14808D01*
X106661Y14904D01*
X106750Y15002D01*
X106836Y15103D01*
X106919Y15207D01*
X106999Y15313D01*
X107075Y15421D01*
X107149Y15531D01*
X107219Y15644D01*
X107286Y15758D01*
X107349Y15875D01*
X107409Y15993D01*
X107466Y16113D01*
X107519Y16235D01*
X107568Y16358D01*
X107614Y16482D01*
X107656Y16608D01*
X107694Y16735D01*
X107729Y16863D01*
X107760Y16992D01*
X107787Y17121D01*
X107810Y17252D01*
X107830Y17383D01*
X107845Y17515D01*
X107857Y17647D01*
X107865Y17779D01*
X107869Y17912D01*
X107869Y18044D01*
X107865Y18177D01*
X107857Y18309D01*
X107845Y18441D01*
X107830Y18573D01*
X107810Y18704D01*
X107787Y18835D01*
X107760Y18964D01*
X107729Y19093D01*
X107694Y19221D01*
X107656Y19348D01*
X107614Y19474D01*
X107568Y19598D01*
X107519Y19721D01*
X107466Y19843D01*
X107409Y19963D01*
X107349Y20081D01*
X107286Y20198D01*
X107219Y20312D01*
X107149Y20425D01*
X107075Y20535D01*
X106999Y20643D01*
X106919Y20749D01*
X106836Y20853D01*
X106750Y20954D01*
X106661Y21052D01*
X106570Y21148D01*
X106475Y21241D01*
X106378Y21331D01*
X106278Y21418D01*
X106176Y21503D01*
X106071Y21584D01*
X105964Y21662D01*
X105855Y21738D01*
X105744Y21809D01*
X105630Y21878D01*
X105515Y21943D01*
X105397Y22005D01*
X105278Y22063D01*
X105157Y22118D01*
X105035Y22169D01*
X104911Y22217D01*
X104786Y22261D01*
X104660Y22301D01*
X104532Y22337D01*
X104404Y22370D01*
X104275Y22399D01*
X104144Y22424D01*
X104014Y22445D01*
X103882Y22463D01*
X103750Y22476D01*
X103618Y22486D01*
X103486Y22492D01*
X103353Y22494D01*
X104256Y29718D02*
X98838Y29718D01*
X104256Y29718D02*
X104375Y29716D01*
X104495Y29710D01*
X104614Y29700D01*
X104732Y29686D01*
X104851Y29669D01*
X104968Y29647D01*
X105085Y29622D01*
X105200Y29592D01*
X105315Y29559D01*
X105429Y29522D01*
X105541Y29482D01*
X105652Y29437D01*
X105761Y29389D01*
X105869Y29338D01*
X105975Y29283D01*
X106079Y29224D01*
X106181Y29162D01*
X106281Y29097D01*
X106379Y29028D01*
X106475Y28956D01*
X106568Y28881D01*
X106658Y28804D01*
X106746Y28723D01*
X106831Y28639D01*
X106913Y28552D01*
X106993Y28463D01*
X107069Y28371D01*
X107143Y28277D01*
X107213Y28180D01*
X107280Y28082D01*
X107344Y27981D01*
X107404Y27877D01*
X107461Y27772D01*
X107514Y27665D01*
X107564Y27557D01*
X107610Y27447D01*
X107652Y27335D01*
X107691Y27222D01*
X107726Y27108D01*
X107757Y26993D01*
X107785Y26876D01*
X107808Y26759D01*
X107828Y26642D01*
X107844Y26523D01*
X107856Y26404D01*
X107864Y26285D01*
X107868Y26166D01*
X107868Y26046D01*
X107864Y25927D01*
X107856Y25808D01*
X107844Y25689D01*
X107828Y25570D01*
X107808Y25453D01*
X107785Y25336D01*
X107757Y25219D01*
X107726Y25104D01*
X107691Y24990D01*
X107652Y24877D01*
X107610Y24765D01*
X107564Y24655D01*
X107514Y24547D01*
X107461Y24440D01*
X107404Y24335D01*
X107344Y24231D01*
X107280Y24130D01*
X107213Y24032D01*
X107143Y23935D01*
X107069Y23841D01*
X106993Y23749D01*
X106913Y23660D01*
X106831Y23573D01*
X106746Y23489D01*
X106658Y23408D01*
X106568Y23331D01*
X106475Y23256D01*
X106379Y23184D01*
X106281Y23115D01*
X106181Y23050D01*
X106079Y22988D01*
X105975Y22929D01*
X105869Y22874D01*
X105761Y22823D01*
X105652Y22775D01*
X105541Y22730D01*
X105429Y22690D01*
X105315Y22653D01*
X105200Y22620D01*
X105085Y22590D01*
X104968Y22565D01*
X104851Y22543D01*
X104732Y22526D01*
X104614Y22512D01*
X104495Y22502D01*
X104375Y22496D01*
X104256Y22494D01*
X104256Y22493D02*
X100644Y22493D01*
X114469Y13462D02*
X118985Y13462D01*
X119118Y13464D01*
X119250Y13470D01*
X119382Y13480D01*
X119514Y13493D01*
X119646Y13511D01*
X119776Y13532D01*
X119907Y13557D01*
X120036Y13586D01*
X120164Y13619D01*
X120292Y13655D01*
X120418Y13695D01*
X120543Y13739D01*
X120667Y13787D01*
X120789Y13838D01*
X120910Y13893D01*
X121029Y13951D01*
X121147Y14013D01*
X121262Y14078D01*
X121376Y14147D01*
X121487Y14218D01*
X121596Y14294D01*
X121703Y14372D01*
X121808Y14453D01*
X121910Y14538D01*
X122010Y14625D01*
X122107Y14715D01*
X122202Y14808D01*
X122293Y14904D01*
X122382Y15002D01*
X122468Y15103D01*
X122551Y15207D01*
X122631Y15313D01*
X122707Y15421D01*
X122781Y15531D01*
X122851Y15644D01*
X122918Y15758D01*
X122981Y15875D01*
X123041Y15993D01*
X123098Y16113D01*
X123151Y16235D01*
X123200Y16358D01*
X123246Y16482D01*
X123288Y16608D01*
X123326Y16735D01*
X123361Y16863D01*
X123392Y16992D01*
X123419Y17121D01*
X123442Y17252D01*
X123462Y17383D01*
X123477Y17515D01*
X123489Y17647D01*
X123497Y17779D01*
X123501Y17912D01*
X123501Y18044D01*
X123497Y18177D01*
X123489Y18309D01*
X123477Y18441D01*
X123462Y18573D01*
X123442Y18704D01*
X123419Y18835D01*
X123392Y18964D01*
X123361Y19093D01*
X123326Y19221D01*
X123288Y19348D01*
X123246Y19474D01*
X123200Y19598D01*
X123151Y19721D01*
X123098Y19843D01*
X123041Y19963D01*
X122981Y20081D01*
X122918Y20198D01*
X122851Y20312D01*
X122781Y20425D01*
X122707Y20535D01*
X122631Y20643D01*
X122551Y20749D01*
X122468Y20853D01*
X122382Y20954D01*
X122293Y21052D01*
X122202Y21148D01*
X122107Y21241D01*
X122010Y21331D01*
X121910Y21418D01*
X121808Y21503D01*
X121703Y21584D01*
X121596Y21662D01*
X121487Y21738D01*
X121376Y21809D01*
X121262Y21878D01*
X121147Y21943D01*
X121029Y22005D01*
X120910Y22063D01*
X120789Y22118D01*
X120667Y22169D01*
X120543Y22217D01*
X120418Y22261D01*
X120292Y22301D01*
X120164Y22337D01*
X120036Y22370D01*
X119907Y22399D01*
X119776Y22424D01*
X119646Y22445D01*
X119514Y22463D01*
X119382Y22476D01*
X119250Y22486D01*
X119118Y22492D01*
X118985Y22494D01*
X119888Y29718D02*
X114469Y29718D01*
X119888Y29718D02*
X120007Y29716D01*
X120127Y29710D01*
X120246Y29700D01*
X120364Y29686D01*
X120483Y29669D01*
X120600Y29647D01*
X120717Y29622D01*
X120832Y29592D01*
X120947Y29559D01*
X121061Y29522D01*
X121173Y29482D01*
X121284Y29437D01*
X121393Y29389D01*
X121501Y29338D01*
X121607Y29283D01*
X121711Y29224D01*
X121813Y29162D01*
X121913Y29097D01*
X122011Y29028D01*
X122107Y28956D01*
X122200Y28881D01*
X122290Y28804D01*
X122378Y28723D01*
X122463Y28639D01*
X122545Y28552D01*
X122625Y28463D01*
X122701Y28371D01*
X122775Y28277D01*
X122845Y28180D01*
X122912Y28082D01*
X122976Y27981D01*
X123036Y27877D01*
X123093Y27772D01*
X123146Y27665D01*
X123196Y27557D01*
X123242Y27447D01*
X123284Y27335D01*
X123323Y27222D01*
X123358Y27108D01*
X123389Y26993D01*
X123417Y26876D01*
X123440Y26759D01*
X123460Y26642D01*
X123476Y26523D01*
X123488Y26404D01*
X123496Y26285D01*
X123500Y26166D01*
X123500Y26046D01*
X123496Y25927D01*
X123488Y25808D01*
X123476Y25689D01*
X123460Y25570D01*
X123440Y25453D01*
X123417Y25336D01*
X123389Y25219D01*
X123358Y25104D01*
X123323Y24990D01*
X123284Y24877D01*
X123242Y24765D01*
X123196Y24655D01*
X123146Y24547D01*
X123093Y24440D01*
X123036Y24335D01*
X122976Y24231D01*
X122912Y24130D01*
X122845Y24032D01*
X122775Y23935D01*
X122701Y23841D01*
X122625Y23749D01*
X122545Y23660D01*
X122463Y23573D01*
X122378Y23489D01*
X122290Y23408D01*
X122200Y23331D01*
X122107Y23256D01*
X122011Y23184D01*
X121913Y23115D01*
X121813Y23050D01*
X121711Y22988D01*
X121607Y22929D01*
X121501Y22874D01*
X121393Y22823D01*
X121284Y22775D01*
X121173Y22730D01*
X121061Y22690D01*
X120947Y22653D01*
X120832Y22620D01*
X120717Y22590D01*
X120600Y22565D01*
X120483Y22543D01*
X120364Y22526D01*
X120246Y22512D01*
X120127Y22502D01*
X120007Y22496D01*
X119888Y22494D01*
X119888Y22493D02*
X116275Y22493D01*
X137534Y13462D02*
X142952Y29718D01*
X148371Y13462D01*
X147016Y17526D02*
X138888Y17526D01*
X161081Y13462D02*
X161081Y29718D01*
X161081Y13462D02*
X156565Y13462D01*
X156464Y13464D01*
X156363Y13470D01*
X156262Y13479D01*
X156161Y13492D01*
X156061Y13509D01*
X155962Y13530D01*
X155864Y13554D01*
X155767Y13582D01*
X155670Y13614D01*
X155575Y13649D01*
X155482Y13688D01*
X155390Y13730D01*
X155299Y13776D01*
X155211Y13825D01*
X155124Y13877D01*
X155039Y13933D01*
X154956Y13991D01*
X154876Y14053D01*
X154798Y14118D01*
X154722Y14185D01*
X154649Y14255D01*
X154579Y14328D01*
X154512Y14404D01*
X154447Y14482D01*
X154385Y14562D01*
X154327Y14645D01*
X154271Y14730D01*
X154219Y14816D01*
X154170Y14905D01*
X154124Y14996D01*
X154082Y15088D01*
X154043Y15181D01*
X154008Y15276D01*
X153976Y15373D01*
X153948Y15470D01*
X153924Y15568D01*
X153903Y15667D01*
X153886Y15767D01*
X153873Y15868D01*
X153864Y15969D01*
X153858Y16070D01*
X153856Y16171D01*
X153856Y21590D01*
X153858Y21691D01*
X153864Y21792D01*
X153873Y21893D01*
X153886Y21994D01*
X153903Y22094D01*
X153924Y22193D01*
X153948Y22291D01*
X153976Y22388D01*
X154008Y22485D01*
X154043Y22580D01*
X154082Y22673D01*
X154124Y22765D01*
X154170Y22856D01*
X154219Y22944D01*
X154271Y23031D01*
X154327Y23116D01*
X154385Y23199D01*
X154447Y23279D01*
X154512Y23357D01*
X154579Y23433D01*
X154649Y23506D01*
X154722Y23576D01*
X154798Y23643D01*
X154876Y23708D01*
X154956Y23770D01*
X155039Y23828D01*
X155124Y23884D01*
X155211Y23936D01*
X155299Y23985D01*
X155390Y24031D01*
X155482Y24073D01*
X155575Y24112D01*
X155670Y24147D01*
X155767Y24179D01*
X155864Y24207D01*
X155962Y24231D01*
X156061Y24252D01*
X156161Y24269D01*
X156262Y24282D01*
X156363Y24291D01*
X156464Y24297D01*
X156565Y24299D01*
X161081Y24299D01*
X167476Y24299D02*
X171089Y13462D01*
X174701Y24299D01*
X183590Y19784D02*
X187654Y19784D01*
X183590Y19784D02*
X183478Y19782D01*
X183367Y19776D01*
X183256Y19766D01*
X183145Y19753D01*
X183035Y19735D01*
X182926Y19713D01*
X182817Y19688D01*
X182709Y19659D01*
X182603Y19626D01*
X182497Y19589D01*
X182393Y19549D01*
X182291Y19505D01*
X182190Y19457D01*
X182091Y19406D01*
X181993Y19351D01*
X181898Y19293D01*
X181805Y19232D01*
X181714Y19167D01*
X181625Y19099D01*
X181539Y19028D01*
X181456Y18955D01*
X181375Y18878D01*
X181296Y18798D01*
X181221Y18716D01*
X181149Y18631D01*
X181079Y18544D01*
X181013Y18454D01*
X180950Y18362D01*
X180890Y18267D01*
X180834Y18171D01*
X180781Y18073D01*
X180732Y17973D01*
X180686Y17871D01*
X180644Y17768D01*
X180605Y17663D01*
X180570Y17557D01*
X180539Y17450D01*
X180512Y17342D01*
X180488Y17233D01*
X180469Y17123D01*
X180453Y17013D01*
X180441Y16902D01*
X180433Y16790D01*
X180429Y16679D01*
X180429Y16567D01*
X180433Y16456D01*
X180441Y16344D01*
X180453Y16233D01*
X180469Y16123D01*
X180488Y16013D01*
X180512Y15904D01*
X180539Y15796D01*
X180570Y15689D01*
X180605Y15583D01*
X180644Y15478D01*
X180686Y15375D01*
X180732Y15273D01*
X180781Y15173D01*
X180834Y15075D01*
X180890Y14979D01*
X180950Y14884D01*
X181013Y14792D01*
X181079Y14702D01*
X181149Y14615D01*
X181221Y14530D01*
X181296Y14448D01*
X181375Y14368D01*
X181456Y14291D01*
X181539Y14218D01*
X181625Y14147D01*
X181714Y14079D01*
X181805Y14014D01*
X181898Y13953D01*
X181993Y13895D01*
X182091Y13840D01*
X182190Y13789D01*
X182291Y13741D01*
X182393Y13697D01*
X182497Y13657D01*
X182603Y13620D01*
X182709Y13587D01*
X182817Y13558D01*
X182926Y13533D01*
X183035Y13511D01*
X183145Y13493D01*
X183256Y13480D01*
X183367Y13470D01*
X183478Y13464D01*
X183590Y13462D01*
X187654Y13462D01*
X187654Y21590D01*
X187653Y21590D02*
X187651Y21691D01*
X187645Y21792D01*
X187636Y21893D01*
X187623Y21994D01*
X187606Y22094D01*
X187585Y22193D01*
X187561Y22291D01*
X187533Y22388D01*
X187501Y22485D01*
X187466Y22580D01*
X187427Y22673D01*
X187385Y22765D01*
X187339Y22856D01*
X187290Y22945D01*
X187238Y23031D01*
X187182Y23116D01*
X187124Y23199D01*
X187062Y23279D01*
X186997Y23357D01*
X186930Y23433D01*
X186860Y23506D01*
X186787Y23576D01*
X186711Y23643D01*
X186633Y23708D01*
X186553Y23770D01*
X186470Y23828D01*
X186385Y23884D01*
X186299Y23936D01*
X186210Y23985D01*
X186119Y24031D01*
X186027Y24073D01*
X185934Y24112D01*
X185839Y24147D01*
X185742Y24179D01*
X185645Y24207D01*
X185547Y24231D01*
X185448Y24252D01*
X185348Y24269D01*
X185247Y24282D01*
X185146Y24291D01*
X185045Y24297D01*
X184944Y24299D01*
X181332Y24299D01*
X195091Y24299D02*
X195091Y13462D01*
X195091Y24299D02*
X199607Y24299D01*
X199711Y24297D01*
X199814Y24291D01*
X199918Y24281D01*
X200021Y24267D01*
X200123Y24249D01*
X200224Y24228D01*
X200325Y24202D01*
X200424Y24173D01*
X200523Y24140D01*
X200620Y24103D01*
X200715Y24062D01*
X200809Y24018D01*
X200901Y23970D01*
X200991Y23919D01*
X201080Y23864D01*
X201166Y23806D01*
X201249Y23744D01*
X201331Y23680D01*
X201409Y23612D01*
X201485Y23542D01*
X201559Y23469D01*
X201629Y23392D01*
X201697Y23314D01*
X201761Y23232D01*
X201823Y23149D01*
X201881Y23063D01*
X201936Y22974D01*
X201987Y22884D01*
X202035Y22792D01*
X202079Y22698D01*
X202120Y22603D01*
X202157Y22506D01*
X202190Y22407D01*
X202219Y22308D01*
X202245Y22207D01*
X202266Y22106D01*
X202284Y22004D01*
X202298Y21901D01*
X202308Y21797D01*
X202314Y21694D01*
X202316Y21590D01*
X202316Y13462D01*
X211886Y13462D02*
X215499Y13462D01*
X211886Y13462D02*
X211785Y13464D01*
X211684Y13470D01*
X211583Y13479D01*
X211482Y13492D01*
X211382Y13509D01*
X211283Y13530D01*
X211185Y13554D01*
X211088Y13582D01*
X210991Y13614D01*
X210896Y13649D01*
X210803Y13688D01*
X210711Y13730D01*
X210620Y13776D01*
X210532Y13825D01*
X210445Y13877D01*
X210360Y13933D01*
X210277Y13991D01*
X210197Y14053D01*
X210119Y14118D01*
X210043Y14185D01*
X209970Y14255D01*
X209900Y14328D01*
X209833Y14404D01*
X209768Y14482D01*
X209706Y14562D01*
X209648Y14645D01*
X209592Y14730D01*
X209540Y14816D01*
X209491Y14905D01*
X209445Y14996D01*
X209403Y15088D01*
X209364Y15181D01*
X209329Y15276D01*
X209297Y15373D01*
X209269Y15470D01*
X209245Y15568D01*
X209224Y15667D01*
X209207Y15767D01*
X209194Y15868D01*
X209185Y15969D01*
X209179Y16070D01*
X209177Y16171D01*
X209177Y21590D01*
X209179Y21691D01*
X209185Y21792D01*
X209194Y21893D01*
X209207Y21994D01*
X209224Y22094D01*
X209245Y22193D01*
X209269Y22291D01*
X209297Y22388D01*
X209329Y22485D01*
X209364Y22580D01*
X209403Y22673D01*
X209445Y22765D01*
X209491Y22856D01*
X209540Y22944D01*
X209592Y23031D01*
X209648Y23116D01*
X209706Y23199D01*
X209768Y23279D01*
X209833Y23357D01*
X209900Y23433D01*
X209970Y23506D01*
X210043Y23576D01*
X210119Y23643D01*
X210197Y23708D01*
X210277Y23770D01*
X210360Y23828D01*
X210445Y23884D01*
X210532Y23936D01*
X210620Y23985D01*
X210711Y24031D01*
X210803Y24073D01*
X210896Y24112D01*
X210991Y24147D01*
X211088Y24179D01*
X211185Y24207D01*
X211283Y24231D01*
X211382Y24252D01*
X211482Y24269D01*
X211583Y24282D01*
X211684Y24291D01*
X211785Y24297D01*
X211886Y24299D01*
X215499Y24299D01*
X223853Y13462D02*
X228368Y13462D01*
X223853Y13462D02*
X223752Y13464D01*
X223651Y13470D01*
X223550Y13479D01*
X223449Y13492D01*
X223349Y13509D01*
X223250Y13530D01*
X223152Y13554D01*
X223055Y13582D01*
X222958Y13614D01*
X222863Y13649D01*
X222770Y13688D01*
X222678Y13730D01*
X222587Y13776D01*
X222499Y13825D01*
X222412Y13877D01*
X222327Y13933D01*
X222244Y13991D01*
X222164Y14053D01*
X222086Y14118D01*
X222010Y14185D01*
X221937Y14255D01*
X221867Y14328D01*
X221800Y14404D01*
X221735Y14482D01*
X221673Y14562D01*
X221615Y14645D01*
X221559Y14730D01*
X221507Y14816D01*
X221458Y14905D01*
X221412Y14996D01*
X221370Y15088D01*
X221331Y15181D01*
X221296Y15276D01*
X221264Y15373D01*
X221236Y15470D01*
X221212Y15568D01*
X221191Y15667D01*
X221174Y15767D01*
X221161Y15868D01*
X221152Y15969D01*
X221146Y16070D01*
X221144Y16171D01*
X221143Y16171D02*
X221143Y20687D01*
X221144Y20687D02*
X221146Y20806D01*
X221152Y20926D01*
X221162Y21045D01*
X221176Y21163D01*
X221193Y21282D01*
X221215Y21399D01*
X221240Y21516D01*
X221270Y21631D01*
X221303Y21746D01*
X221340Y21860D01*
X221380Y21972D01*
X221425Y22083D01*
X221473Y22192D01*
X221524Y22300D01*
X221579Y22406D01*
X221638Y22510D01*
X221700Y22612D01*
X221765Y22712D01*
X221834Y22810D01*
X221906Y22906D01*
X221981Y22999D01*
X222058Y23089D01*
X222139Y23177D01*
X222223Y23262D01*
X222310Y23344D01*
X222399Y23424D01*
X222491Y23500D01*
X222585Y23574D01*
X222682Y23644D01*
X222780Y23711D01*
X222881Y23775D01*
X222985Y23835D01*
X223090Y23892D01*
X223197Y23945D01*
X223305Y23995D01*
X223415Y24041D01*
X223527Y24083D01*
X223640Y24122D01*
X223754Y24157D01*
X223869Y24188D01*
X223986Y24216D01*
X224103Y24239D01*
X224220Y24259D01*
X224339Y24275D01*
X224458Y24287D01*
X224577Y24295D01*
X224696Y24299D01*
X224816Y24299D01*
X224935Y24295D01*
X225054Y24287D01*
X225173Y24275D01*
X225292Y24259D01*
X225409Y24239D01*
X225526Y24216D01*
X225643Y24188D01*
X225758Y24157D01*
X225872Y24122D01*
X225985Y24083D01*
X226097Y24041D01*
X226207Y23995D01*
X226315Y23945D01*
X226422Y23892D01*
X226527Y23835D01*
X226631Y23775D01*
X226732Y23711D01*
X226830Y23644D01*
X226927Y23574D01*
X227021Y23500D01*
X227113Y23424D01*
X227202Y23344D01*
X227289Y23262D01*
X227373Y23177D01*
X227454Y23089D01*
X227531Y22999D01*
X227606Y22906D01*
X227678Y22810D01*
X227747Y22712D01*
X227812Y22612D01*
X227874Y22510D01*
X227933Y22406D01*
X227988Y22300D01*
X228039Y22192D01*
X228087Y22083D01*
X228132Y21972D01*
X228172Y21860D01*
X228209Y21746D01*
X228242Y21631D01*
X228272Y21516D01*
X228297Y21399D01*
X228319Y21282D01*
X228336Y21163D01*
X228350Y21045D01*
X228360Y20926D01*
X228366Y20806D01*
X228368Y20687D01*
X228368Y18881D01*
X221143Y18881D01*
X241842Y13462D02*
X241842Y29718D01*
X241842Y13462D02*
X237326Y13462D01*
X237225Y13464D01*
X237124Y13470D01*
X237023Y13479D01*
X236922Y13492D01*
X236822Y13509D01*
X236723Y13530D01*
X236625Y13554D01*
X236528Y13582D01*
X236431Y13614D01*
X236336Y13649D01*
X236243Y13688D01*
X236151Y13730D01*
X236060Y13776D01*
X235972Y13825D01*
X235885Y13877D01*
X235800Y13933D01*
X235717Y13991D01*
X235637Y14053D01*
X235559Y14118D01*
X235483Y14185D01*
X235410Y14255D01*
X235340Y14328D01*
X235273Y14404D01*
X235208Y14482D01*
X235146Y14562D01*
X235088Y14645D01*
X235032Y14730D01*
X234980Y14816D01*
X234931Y14905D01*
X234885Y14996D01*
X234843Y15088D01*
X234804Y15181D01*
X234769Y15276D01*
X234737Y15373D01*
X234709Y15470D01*
X234685Y15568D01*
X234664Y15667D01*
X234647Y15767D01*
X234634Y15868D01*
X234625Y15969D01*
X234619Y16070D01*
X234617Y16171D01*
X234617Y21590D01*
X234619Y21691D01*
X234625Y21792D01*
X234634Y21893D01*
X234647Y21994D01*
X234664Y22094D01*
X234685Y22193D01*
X234709Y22291D01*
X234737Y22388D01*
X234769Y22485D01*
X234804Y22580D01*
X234843Y22673D01*
X234885Y22765D01*
X234931Y22856D01*
X234980Y22944D01*
X235032Y23031D01*
X235088Y23116D01*
X235146Y23199D01*
X235208Y23279D01*
X235273Y23357D01*
X235340Y23433D01*
X235410Y23506D01*
X235483Y23576D01*
X235559Y23643D01*
X235637Y23708D01*
X235717Y23770D01*
X235800Y23828D01*
X235885Y23884D01*
X235972Y23936D01*
X236060Y23985D01*
X236151Y24031D01*
X236243Y24073D01*
X236336Y24112D01*
X236431Y24147D01*
X236528Y24179D01*
X236625Y24207D01*
X236723Y24231D01*
X236822Y24252D01*
X236922Y24269D01*
X237023Y24282D01*
X237124Y24291D01*
X237225Y24297D01*
X237326Y24299D01*
X241842Y24299D01*
X257894Y29718D02*
X257894Y13462D01*
X263313Y20687D02*
X257894Y29718D01*
X263313Y20687D02*
X268731Y29718D01*
X268731Y13462D01*
X278562Y13462D02*
X283077Y13462D01*
X278562Y13462D02*
X278461Y13464D01*
X278360Y13470D01*
X278259Y13479D01*
X278158Y13492D01*
X278058Y13509D01*
X277959Y13530D01*
X277861Y13554D01*
X277764Y13582D01*
X277667Y13614D01*
X277572Y13649D01*
X277479Y13688D01*
X277387Y13730D01*
X277296Y13776D01*
X277208Y13825D01*
X277121Y13877D01*
X277036Y13933D01*
X276953Y13991D01*
X276873Y14053D01*
X276795Y14118D01*
X276719Y14185D01*
X276646Y14255D01*
X276576Y14328D01*
X276509Y14404D01*
X276444Y14482D01*
X276382Y14562D01*
X276324Y14645D01*
X276268Y14730D01*
X276216Y14816D01*
X276167Y14905D01*
X276121Y14996D01*
X276079Y15088D01*
X276040Y15181D01*
X276005Y15276D01*
X275973Y15373D01*
X275945Y15470D01*
X275921Y15568D01*
X275900Y15667D01*
X275883Y15767D01*
X275870Y15868D01*
X275861Y15969D01*
X275855Y16070D01*
X275853Y16171D01*
X275853Y20687D01*
X275855Y20806D01*
X275861Y20926D01*
X275871Y21045D01*
X275885Y21163D01*
X275902Y21282D01*
X275924Y21399D01*
X275949Y21516D01*
X275979Y21631D01*
X276012Y21746D01*
X276049Y21860D01*
X276089Y21972D01*
X276134Y22083D01*
X276182Y22192D01*
X276233Y22300D01*
X276288Y22406D01*
X276347Y22510D01*
X276409Y22612D01*
X276474Y22712D01*
X276543Y22810D01*
X276615Y22906D01*
X276690Y22999D01*
X276767Y23089D01*
X276848Y23177D01*
X276932Y23262D01*
X277019Y23344D01*
X277108Y23424D01*
X277200Y23500D01*
X277294Y23574D01*
X277391Y23644D01*
X277489Y23711D01*
X277590Y23775D01*
X277694Y23835D01*
X277799Y23892D01*
X277906Y23945D01*
X278014Y23995D01*
X278124Y24041D01*
X278236Y24083D01*
X278349Y24122D01*
X278463Y24157D01*
X278578Y24188D01*
X278695Y24216D01*
X278812Y24239D01*
X278929Y24259D01*
X279048Y24275D01*
X279167Y24287D01*
X279286Y24295D01*
X279405Y24299D01*
X279525Y24299D01*
X279644Y24295D01*
X279763Y24287D01*
X279882Y24275D01*
X280001Y24259D01*
X280118Y24239D01*
X280235Y24216D01*
X280352Y24188D01*
X280467Y24157D01*
X280581Y24122D01*
X280694Y24083D01*
X280806Y24041D01*
X280916Y23995D01*
X281024Y23945D01*
X281131Y23892D01*
X281236Y23835D01*
X281340Y23775D01*
X281441Y23711D01*
X281539Y23644D01*
X281636Y23574D01*
X281730Y23500D01*
X281822Y23424D01*
X281911Y23344D01*
X281998Y23262D01*
X282082Y23177D01*
X282163Y23089D01*
X282240Y22999D01*
X282315Y22906D01*
X282387Y22810D01*
X282456Y22712D01*
X282521Y22612D01*
X282583Y22510D01*
X282642Y22406D01*
X282697Y22300D01*
X282748Y22192D01*
X282796Y22083D01*
X282841Y21972D01*
X282881Y21860D01*
X282918Y21746D01*
X282951Y21631D01*
X282981Y21516D01*
X283006Y21399D01*
X283028Y21282D01*
X283045Y21163D01*
X283059Y21045D01*
X283069Y20926D01*
X283075Y20806D01*
X283077Y20687D01*
X283077Y18881D01*
X275853Y18881D01*
X292127Y13462D02*
X295739Y13462D01*
X292127Y13462D02*
X292026Y13464D01*
X291925Y13470D01*
X291824Y13479D01*
X291723Y13492D01*
X291623Y13509D01*
X291524Y13530D01*
X291426Y13554D01*
X291329Y13582D01*
X291232Y13614D01*
X291137Y13649D01*
X291044Y13688D01*
X290952Y13730D01*
X290861Y13776D01*
X290773Y13825D01*
X290686Y13877D01*
X290601Y13933D01*
X290518Y13991D01*
X290438Y14053D01*
X290360Y14118D01*
X290284Y14185D01*
X290211Y14255D01*
X290141Y14328D01*
X290074Y14404D01*
X290009Y14482D01*
X289947Y14562D01*
X289889Y14645D01*
X289833Y14730D01*
X289781Y14816D01*
X289732Y14905D01*
X289686Y14996D01*
X289644Y15088D01*
X289605Y15181D01*
X289570Y15276D01*
X289538Y15373D01*
X289510Y15470D01*
X289486Y15568D01*
X289465Y15667D01*
X289448Y15767D01*
X289435Y15868D01*
X289426Y15969D01*
X289420Y16070D01*
X289418Y16171D01*
X289417Y16171D02*
X289417Y21590D01*
X289418Y21590D02*
X289420Y21691D01*
X289426Y21792D01*
X289435Y21893D01*
X289448Y21994D01*
X289465Y22094D01*
X289486Y22193D01*
X289510Y22291D01*
X289538Y22388D01*
X289570Y22485D01*
X289605Y22580D01*
X289644Y22673D01*
X289686Y22765D01*
X289732Y22856D01*
X289781Y22944D01*
X289833Y23031D01*
X289889Y23116D01*
X289947Y23199D01*
X290009Y23279D01*
X290074Y23357D01*
X290141Y23433D01*
X290211Y23506D01*
X290284Y23576D01*
X290360Y23643D01*
X290438Y23708D01*
X290518Y23770D01*
X290601Y23828D01*
X290686Y23884D01*
X290773Y23936D01*
X290861Y23985D01*
X290952Y24031D01*
X291044Y24073D01*
X291137Y24112D01*
X291232Y24147D01*
X291329Y24179D01*
X291426Y24207D01*
X291524Y24231D01*
X291623Y24252D01*
X291723Y24269D01*
X291824Y24282D01*
X291925Y24291D01*
X292026Y24297D01*
X292127Y24299D01*
X295739Y24299D01*
X301905Y29718D02*
X301905Y13462D01*
X301905Y24299D02*
X306420Y24299D01*
X306524Y24297D01*
X306627Y24291D01*
X306731Y24281D01*
X306834Y24267D01*
X306936Y24249D01*
X307037Y24228D01*
X307138Y24202D01*
X307237Y24173D01*
X307336Y24140D01*
X307433Y24103D01*
X307528Y24062D01*
X307622Y24018D01*
X307714Y23970D01*
X307804Y23919D01*
X307893Y23864D01*
X307979Y23806D01*
X308062Y23744D01*
X308144Y23680D01*
X308222Y23612D01*
X308298Y23542D01*
X308372Y23469D01*
X308442Y23392D01*
X308510Y23314D01*
X308574Y23232D01*
X308636Y23149D01*
X308694Y23063D01*
X308749Y22974D01*
X308800Y22884D01*
X308848Y22792D01*
X308892Y22698D01*
X308933Y22603D01*
X308970Y22506D01*
X309003Y22407D01*
X309032Y22308D01*
X309058Y22207D01*
X309079Y22106D01*
X309097Y22004D01*
X309111Y21901D01*
X309121Y21797D01*
X309127Y21694D01*
X309129Y21590D01*
X309130Y21590D02*
X309130Y13462D01*
X319060Y19784D02*
X323124Y19784D01*
X319060Y19784D02*
X318948Y19782D01*
X318837Y19776D01*
X318726Y19766D01*
X318615Y19753D01*
X318505Y19735D01*
X318396Y19713D01*
X318287Y19688D01*
X318179Y19659D01*
X318073Y19626D01*
X317967Y19589D01*
X317863Y19549D01*
X317761Y19505D01*
X317660Y19457D01*
X317561Y19406D01*
X317463Y19351D01*
X317368Y19293D01*
X317275Y19232D01*
X317184Y19167D01*
X317095Y19099D01*
X317009Y19028D01*
X316926Y18955D01*
X316845Y18878D01*
X316766Y18798D01*
X316691Y18716D01*
X316619Y18631D01*
X316549Y18544D01*
X316483Y18454D01*
X316420Y18362D01*
X316360Y18267D01*
X316304Y18171D01*
X316251Y18073D01*
X316202Y17973D01*
X316156Y17871D01*
X316114Y17768D01*
X316075Y17663D01*
X316040Y17557D01*
X316009Y17450D01*
X315982Y17342D01*
X315958Y17233D01*
X315939Y17123D01*
X315923Y17013D01*
X315911Y16902D01*
X315903Y16790D01*
X315899Y16679D01*
X315899Y16567D01*
X315903Y16456D01*
X315911Y16344D01*
X315923Y16233D01*
X315939Y16123D01*
X315958Y16013D01*
X315982Y15904D01*
X316009Y15796D01*
X316040Y15689D01*
X316075Y15583D01*
X316114Y15478D01*
X316156Y15375D01*
X316202Y15273D01*
X316251Y15173D01*
X316304Y15075D01*
X316360Y14979D01*
X316420Y14884D01*
X316483Y14792D01*
X316549Y14702D01*
X316619Y14615D01*
X316691Y14530D01*
X316766Y14448D01*
X316845Y14368D01*
X316926Y14291D01*
X317009Y14218D01*
X317095Y14147D01*
X317184Y14079D01*
X317275Y14014D01*
X317368Y13953D01*
X317463Y13895D01*
X317561Y13840D01*
X317660Y13789D01*
X317761Y13741D01*
X317863Y13697D01*
X317967Y13657D01*
X318073Y13620D01*
X318179Y13587D01*
X318287Y13558D01*
X318396Y13533D01*
X318505Y13511D01*
X318615Y13493D01*
X318726Y13480D01*
X318837Y13470D01*
X318948Y13464D01*
X319060Y13462D01*
X323124Y13462D01*
X323124Y21590D01*
X323122Y21691D01*
X323116Y21792D01*
X323107Y21893D01*
X323094Y21994D01*
X323077Y22094D01*
X323056Y22193D01*
X323032Y22291D01*
X323004Y22388D01*
X322972Y22485D01*
X322937Y22580D01*
X322898Y22673D01*
X322856Y22765D01*
X322810Y22856D01*
X322761Y22945D01*
X322709Y23031D01*
X322653Y23116D01*
X322595Y23199D01*
X322533Y23279D01*
X322468Y23357D01*
X322401Y23433D01*
X322331Y23506D01*
X322258Y23576D01*
X322182Y23643D01*
X322104Y23708D01*
X322024Y23770D01*
X321941Y23828D01*
X321856Y23884D01*
X321770Y23936D01*
X321681Y23985D01*
X321590Y24031D01*
X321498Y24073D01*
X321405Y24112D01*
X321310Y24147D01*
X321213Y24179D01*
X321116Y24207D01*
X321018Y24231D01*
X320919Y24252D01*
X320819Y24269D01*
X320718Y24282D01*
X320617Y24291D01*
X320516Y24297D01*
X320415Y24299D01*
X316803Y24299D01*
X328744Y24299D02*
X334162Y24299D01*
X330550Y29718D02*
X330550Y16171D01*
X330552Y16070D01*
X330558Y15969D01*
X330567Y15868D01*
X330580Y15767D01*
X330597Y15667D01*
X330618Y15568D01*
X330642Y15470D01*
X330670Y15373D01*
X330702Y15276D01*
X330737Y15181D01*
X330776Y15088D01*
X330818Y14996D01*
X330864Y14905D01*
X330913Y14816D01*
X330965Y14730D01*
X331021Y14645D01*
X331079Y14562D01*
X331141Y14482D01*
X331206Y14404D01*
X331273Y14328D01*
X331343Y14255D01*
X331416Y14185D01*
X331492Y14118D01*
X331570Y14053D01*
X331650Y13991D01*
X331733Y13933D01*
X331818Y13877D01*
X331905Y13825D01*
X331993Y13776D01*
X332084Y13730D01*
X332176Y13688D01*
X332269Y13649D01*
X332364Y13614D01*
X332461Y13582D01*
X332558Y13554D01*
X332656Y13530D01*
X332755Y13509D01*
X332855Y13492D01*
X332956Y13479D01*
X333057Y13470D01*
X333158Y13464D01*
X333259Y13462D01*
X334162Y13462D01*
X340547Y13462D02*
X340547Y24299D01*
X345965Y24299D01*
X345965Y22493D01*
X350882Y20687D02*
X350882Y17074D01*
X350883Y20687D02*
X350885Y20806D01*
X350891Y20926D01*
X350901Y21045D01*
X350915Y21163D01*
X350932Y21282D01*
X350954Y21399D01*
X350979Y21516D01*
X351009Y21631D01*
X351042Y21746D01*
X351079Y21860D01*
X351119Y21972D01*
X351164Y22083D01*
X351212Y22192D01*
X351263Y22300D01*
X351318Y22406D01*
X351377Y22510D01*
X351439Y22612D01*
X351504Y22712D01*
X351573Y22810D01*
X351645Y22906D01*
X351720Y22999D01*
X351797Y23089D01*
X351878Y23177D01*
X351962Y23262D01*
X352049Y23344D01*
X352138Y23424D01*
X352230Y23500D01*
X352324Y23574D01*
X352421Y23644D01*
X352519Y23711D01*
X352620Y23775D01*
X352724Y23835D01*
X352829Y23892D01*
X352936Y23945D01*
X353044Y23995D01*
X353154Y24041D01*
X353266Y24083D01*
X353379Y24122D01*
X353493Y24157D01*
X353608Y24188D01*
X353725Y24216D01*
X353842Y24239D01*
X353959Y24259D01*
X354078Y24275D01*
X354197Y24287D01*
X354316Y24295D01*
X354435Y24299D01*
X354555Y24299D01*
X354674Y24295D01*
X354793Y24287D01*
X354912Y24275D01*
X355031Y24259D01*
X355148Y24239D01*
X355265Y24216D01*
X355382Y24188D01*
X355497Y24157D01*
X355611Y24122D01*
X355724Y24083D01*
X355836Y24041D01*
X355946Y23995D01*
X356054Y23945D01*
X356161Y23892D01*
X356266Y23835D01*
X356370Y23775D01*
X356471Y23711D01*
X356569Y23644D01*
X356666Y23574D01*
X356760Y23500D01*
X356852Y23424D01*
X356941Y23344D01*
X357028Y23262D01*
X357112Y23177D01*
X357193Y23089D01*
X357270Y22999D01*
X357345Y22906D01*
X357417Y22810D01*
X357486Y22712D01*
X357551Y22612D01*
X357613Y22510D01*
X357672Y22406D01*
X357727Y22300D01*
X357778Y22192D01*
X357826Y22083D01*
X357871Y21972D01*
X357911Y21860D01*
X357948Y21746D01*
X357981Y21631D01*
X358011Y21516D01*
X358036Y21399D01*
X358058Y21282D01*
X358075Y21163D01*
X358089Y21045D01*
X358099Y20926D01*
X358105Y20806D01*
X358107Y20687D01*
X358107Y17074D01*
X358105Y16955D01*
X358099Y16835D01*
X358089Y16716D01*
X358075Y16598D01*
X358058Y16479D01*
X358036Y16362D01*
X358011Y16245D01*
X357981Y16130D01*
X357948Y16015D01*
X357911Y15901D01*
X357871Y15789D01*
X357826Y15678D01*
X357778Y15569D01*
X357727Y15461D01*
X357672Y15355D01*
X357613Y15251D01*
X357551Y15149D01*
X357486Y15049D01*
X357417Y14951D01*
X357345Y14855D01*
X357270Y14762D01*
X357193Y14672D01*
X357112Y14584D01*
X357028Y14499D01*
X356941Y14417D01*
X356852Y14337D01*
X356760Y14261D01*
X356666Y14187D01*
X356569Y14117D01*
X356471Y14050D01*
X356370Y13986D01*
X356266Y13926D01*
X356161Y13869D01*
X356054Y13816D01*
X355946Y13766D01*
X355836Y13720D01*
X355724Y13678D01*
X355611Y13639D01*
X355497Y13604D01*
X355382Y13573D01*
X355265Y13545D01*
X355148Y13522D01*
X355031Y13502D01*
X354912Y13486D01*
X354793Y13474D01*
X354674Y13466D01*
X354555Y13462D01*
X354435Y13462D01*
X354316Y13466D01*
X354197Y13474D01*
X354078Y13486D01*
X353959Y13502D01*
X353842Y13522D01*
X353725Y13545D01*
X353608Y13573D01*
X353493Y13604D01*
X353379Y13639D01*
X353266Y13678D01*
X353154Y13720D01*
X353044Y13766D01*
X352936Y13816D01*
X352829Y13869D01*
X352724Y13926D01*
X352620Y13986D01*
X352519Y14050D01*
X352421Y14117D01*
X352324Y14187D01*
X352230Y14261D01*
X352138Y14337D01*
X352049Y14417D01*
X351962Y14499D01*
X351878Y14584D01*
X351797Y14672D01*
X351720Y14762D01*
X351645Y14855D01*
X351573Y14951D01*
X351504Y15049D01*
X351439Y15149D01*
X351377Y15251D01*
X351318Y15355D01*
X351263Y15461D01*
X351212Y15569D01*
X351164Y15678D01*
X351119Y15789D01*
X351079Y15901D01*
X351042Y16015D01*
X351009Y16130D01*
X350979Y16245D01*
X350954Y16362D01*
X350932Y16479D01*
X350915Y16598D01*
X350901Y16716D01*
X350891Y16835D01*
X350885Y16955D01*
X350883Y17074D01*
X364951Y13462D02*
X364951Y24299D01*
X369466Y24299D01*
X369570Y24297D01*
X369673Y24291D01*
X369777Y24281D01*
X369880Y24267D01*
X369982Y24249D01*
X370083Y24228D01*
X370184Y24202D01*
X370283Y24173D01*
X370382Y24140D01*
X370479Y24103D01*
X370574Y24062D01*
X370668Y24018D01*
X370760Y23970D01*
X370850Y23919D01*
X370939Y23864D01*
X371025Y23806D01*
X371108Y23744D01*
X371190Y23680D01*
X371268Y23612D01*
X371344Y23542D01*
X371418Y23469D01*
X371488Y23392D01*
X371556Y23314D01*
X371620Y23232D01*
X371682Y23149D01*
X371740Y23063D01*
X371795Y22974D01*
X371846Y22884D01*
X371894Y22792D01*
X371938Y22698D01*
X371979Y22603D01*
X372016Y22506D01*
X372049Y22407D01*
X372078Y22308D01*
X372104Y22207D01*
X372125Y22106D01*
X372143Y22004D01*
X372157Y21901D01*
X372167Y21797D01*
X372173Y21694D01*
X372175Y21590D01*
X372175Y13462D01*
X378984Y13462D02*
X378984Y24299D01*
X378532Y28815D02*
X378532Y29718D01*
X379435Y29718D01*
X379435Y28815D01*
X378532Y28815D01*
X387998Y13462D02*
X391610Y13462D01*
X387998Y13462D02*
X387897Y13464D01*
X387796Y13470D01*
X387695Y13479D01*
X387594Y13492D01*
X387494Y13509D01*
X387395Y13530D01*
X387297Y13554D01*
X387200Y13582D01*
X387103Y13614D01*
X387008Y13649D01*
X386915Y13688D01*
X386823Y13730D01*
X386732Y13776D01*
X386644Y13825D01*
X386557Y13877D01*
X386472Y13933D01*
X386389Y13991D01*
X386309Y14053D01*
X386231Y14118D01*
X386155Y14185D01*
X386082Y14255D01*
X386012Y14328D01*
X385945Y14404D01*
X385880Y14482D01*
X385818Y14562D01*
X385760Y14645D01*
X385704Y14730D01*
X385652Y14816D01*
X385603Y14905D01*
X385557Y14996D01*
X385515Y15088D01*
X385476Y15181D01*
X385441Y15276D01*
X385409Y15373D01*
X385381Y15470D01*
X385357Y15568D01*
X385336Y15667D01*
X385319Y15767D01*
X385306Y15868D01*
X385297Y15969D01*
X385291Y16070D01*
X385289Y16171D01*
X385289Y21590D01*
X385291Y21691D01*
X385297Y21792D01*
X385306Y21893D01*
X385319Y21994D01*
X385336Y22094D01*
X385357Y22193D01*
X385381Y22291D01*
X385409Y22388D01*
X385441Y22485D01*
X385476Y22580D01*
X385515Y22673D01*
X385557Y22765D01*
X385603Y22856D01*
X385652Y22944D01*
X385704Y23031D01*
X385760Y23116D01*
X385818Y23199D01*
X385880Y23279D01*
X385945Y23357D01*
X386012Y23433D01*
X386082Y23506D01*
X386155Y23576D01*
X386231Y23643D01*
X386309Y23708D01*
X386389Y23770D01*
X386472Y23828D01*
X386557Y23884D01*
X386644Y23936D01*
X386732Y23985D01*
X386823Y24031D01*
X386915Y24073D01*
X387008Y24112D01*
X387103Y24147D01*
X387200Y24179D01*
X387297Y24207D01*
X387395Y24231D01*
X387494Y24252D01*
X387594Y24269D01*
X387695Y24282D01*
X387796Y24291D01*
X387897Y24297D01*
X387998Y24299D01*
X391610Y24299D01*
X398610Y19784D02*
X403125Y17978D01*
X398609Y19784D02*
X398521Y19821D01*
X398435Y19862D01*
X398350Y19906D01*
X398267Y19954D01*
X398187Y20005D01*
X398108Y20059D01*
X398032Y20117D01*
X397958Y20177D01*
X397886Y20241D01*
X397818Y20307D01*
X397752Y20377D01*
X397689Y20448D01*
X397628Y20523D01*
X397571Y20599D01*
X397518Y20678D01*
X397467Y20759D01*
X397420Y20842D01*
X397376Y20927D01*
X397336Y21014D01*
X397299Y21102D01*
X397266Y21192D01*
X397236Y21283D01*
X397211Y21375D01*
X397189Y21468D01*
X397171Y21562D01*
X397156Y21656D01*
X397146Y21751D01*
X397140Y21847D01*
X397137Y21942D01*
X397138Y22038D01*
X397144Y22133D01*
X397153Y22229D01*
X397166Y22323D01*
X397182Y22417D01*
X397203Y22511D01*
X397228Y22603D01*
X397256Y22694D01*
X397288Y22784D01*
X397323Y22873D01*
X397362Y22960D01*
X397405Y23046D01*
X397451Y23130D01*
X397501Y23211D01*
X397553Y23291D01*
X397609Y23369D01*
X397669Y23444D01*
X397731Y23516D01*
X397796Y23586D01*
X397864Y23654D01*
X397934Y23718D01*
X398007Y23780D01*
X398083Y23838D01*
X398161Y23894D01*
X398241Y23946D01*
X398323Y23995D01*
X398407Y24040D01*
X398493Y24082D01*
X398580Y24121D01*
X398669Y24156D01*
X398760Y24187D01*
X398851Y24214D01*
X398944Y24238D01*
X399037Y24258D01*
X399131Y24274D01*
X399226Y24286D01*
X399321Y24295D01*
X399417Y24299D01*
X399512Y24300D01*
X399759Y24293D01*
X400005Y24281D01*
X400251Y24263D01*
X400497Y24238D01*
X400741Y24208D01*
X400985Y24172D01*
X401228Y24131D01*
X401470Y24083D01*
X401711Y24029D01*
X401950Y23970D01*
X402188Y23905D01*
X402424Y23834D01*
X402659Y23758D01*
X402892Y23676D01*
X403122Y23588D01*
X403350Y23495D01*
X403577Y23397D01*
X403126Y17977D02*
X403214Y17940D01*
X403300Y17899D01*
X403385Y17855D01*
X403468Y17807D01*
X403548Y17756D01*
X403627Y17702D01*
X403703Y17644D01*
X403777Y17584D01*
X403849Y17520D01*
X403917Y17454D01*
X403983Y17384D01*
X404046Y17313D01*
X404107Y17238D01*
X404164Y17162D01*
X404217Y17083D01*
X404268Y17002D01*
X404315Y16919D01*
X404359Y16834D01*
X404399Y16747D01*
X404436Y16659D01*
X404469Y16569D01*
X404499Y16478D01*
X404524Y16386D01*
X404546Y16293D01*
X404564Y16199D01*
X404579Y16105D01*
X404589Y16010D01*
X404595Y15914D01*
X404598Y15819D01*
X404597Y15723D01*
X404591Y15628D01*
X404582Y15532D01*
X404569Y15438D01*
X404553Y15344D01*
X404532Y15250D01*
X404507Y15158D01*
X404479Y15067D01*
X404447Y14977D01*
X404412Y14888D01*
X404373Y14801D01*
X404330Y14715D01*
X404284Y14631D01*
X404234Y14550D01*
X404182Y14470D01*
X404126Y14392D01*
X404066Y14317D01*
X404004Y14245D01*
X403939Y14175D01*
X403871Y14107D01*
X403801Y14043D01*
X403728Y13981D01*
X403652Y13923D01*
X403574Y13867D01*
X403494Y13815D01*
X403412Y13766D01*
X403328Y13721D01*
X403242Y13679D01*
X403155Y13640D01*
X403066Y13605D01*
X402975Y13574D01*
X402884Y13547D01*
X402791Y13523D01*
X402698Y13503D01*
X402604Y13487D01*
X402509Y13475D01*
X402414Y13466D01*
X402318Y13462D01*
X402223Y13461D01*
X402222Y13462D02*
X401860Y13471D01*
X401498Y13489D01*
X401137Y13516D01*
X400777Y13551D01*
X400417Y13594D01*
X400058Y13646D01*
X399701Y13707D01*
X399346Y13776D01*
X398992Y13853D01*
X398640Y13939D01*
X398290Y14033D01*
X397942Y14136D01*
X397597Y14246D01*
X397255Y14365D01*
X424245Y29718D02*
X424370Y29716D01*
X424495Y29710D01*
X424620Y29701D01*
X424744Y29687D01*
X424868Y29670D01*
X424992Y29649D01*
X425114Y29624D01*
X425236Y29595D01*
X425357Y29563D01*
X425477Y29527D01*
X425596Y29487D01*
X425713Y29444D01*
X425829Y29397D01*
X425944Y29346D01*
X426056Y29292D01*
X426168Y29234D01*
X426277Y29174D01*
X426384Y29109D01*
X426490Y29042D01*
X426593Y28971D01*
X426694Y28897D01*
X426793Y28820D01*
X426889Y28740D01*
X426983Y28657D01*
X427074Y28572D01*
X427163Y28483D01*
X427248Y28392D01*
X427331Y28298D01*
X427411Y28202D01*
X427488Y28103D01*
X427562Y28002D01*
X427633Y27899D01*
X427700Y27793D01*
X427765Y27686D01*
X427825Y27577D01*
X427883Y27465D01*
X427937Y27353D01*
X427988Y27238D01*
X428035Y27122D01*
X428078Y27005D01*
X428118Y26886D01*
X428154Y26766D01*
X428186Y26645D01*
X428215Y26523D01*
X428240Y26401D01*
X428261Y26277D01*
X428278Y26153D01*
X428292Y26029D01*
X428301Y25904D01*
X428307Y25779D01*
X428309Y25654D01*
X424245Y29718D02*
X424102Y29716D01*
X423960Y29710D01*
X423817Y29700D01*
X423675Y29687D01*
X423534Y29669D01*
X423392Y29648D01*
X423252Y29623D01*
X423112Y29594D01*
X422973Y29561D01*
X422835Y29524D01*
X422698Y29484D01*
X422563Y29440D01*
X422428Y29392D01*
X422295Y29340D01*
X422163Y29285D01*
X422033Y29226D01*
X421905Y29164D01*
X421778Y29098D01*
X421653Y29029D01*
X421530Y28957D01*
X421410Y28881D01*
X421291Y28802D01*
X421174Y28719D01*
X421060Y28634D01*
X420948Y28545D01*
X420839Y28454D01*
X420732Y28359D01*
X420627Y28262D01*
X420526Y28161D01*
X420427Y28058D01*
X420331Y27953D01*
X420238Y27844D01*
X420148Y27733D01*
X420061Y27620D01*
X419977Y27505D01*
X419897Y27387D01*
X419819Y27267D01*
X419745Y27145D01*
X419675Y27021D01*
X419607Y26895D01*
X419544Y26767D01*
X419483Y26638D01*
X419426Y26507D01*
X419373Y26375D01*
X419324Y26241D01*
X419278Y26106D01*
X426954Y22493D02*
X427048Y22585D01*
X427138Y22679D01*
X427226Y22776D01*
X427311Y22876D01*
X427393Y22978D01*
X427472Y23083D01*
X427547Y23190D01*
X427619Y23299D01*
X427688Y23410D01*
X427754Y23524D01*
X427816Y23639D01*
X427875Y23756D01*
X427930Y23875D01*
X427981Y23995D01*
X428029Y24117D01*
X428074Y24240D01*
X428114Y24364D01*
X428151Y24490D01*
X428184Y24617D01*
X428213Y24744D01*
X428239Y24873D01*
X428260Y25002D01*
X428278Y25132D01*
X428291Y25262D01*
X428301Y25392D01*
X428307Y25523D01*
X428309Y25654D01*
X426954Y22493D02*
X419278Y13462D01*
X428309Y13462D01*
X434909Y21590D02*
X434913Y21910D01*
X434924Y22229D01*
X434943Y22549D01*
X434970Y22867D01*
X435004Y23185D01*
X435046Y23502D01*
X435096Y23818D01*
X435153Y24133D01*
X435217Y24446D01*
X435289Y24758D01*
X435368Y25068D01*
X435455Y25375D01*
X435549Y25681D01*
X435650Y25984D01*
X435759Y26285D01*
X435874Y26583D01*
X435997Y26879D01*
X436127Y27171D01*
X436264Y27460D01*
X436263Y27461D02*
X436302Y27569D01*
X436345Y27676D01*
X436391Y27781D01*
X436442Y27885D01*
X436495Y27987D01*
X436552Y28087D01*
X436613Y28185D01*
X436677Y28280D01*
X436744Y28374D01*
X436815Y28465D01*
X436888Y28554D01*
X436965Y28640D01*
X437044Y28723D01*
X437126Y28804D01*
X437211Y28882D01*
X437299Y28956D01*
X437389Y29028D01*
X437481Y29096D01*
X437576Y29162D01*
X437673Y29224D01*
X437772Y29282D01*
X437874Y29338D01*
X437976Y29389D01*
X438081Y29437D01*
X438187Y29482D01*
X438295Y29523D01*
X438404Y29560D01*
X438514Y29593D01*
X438626Y29622D01*
X438738Y29648D01*
X438851Y29670D01*
X438965Y29687D01*
X439079Y29701D01*
X439194Y29711D01*
X439309Y29717D01*
X439424Y29719D01*
X439424Y29718D02*
X439539Y29716D01*
X439654Y29710D01*
X439769Y29700D01*
X439883Y29686D01*
X439997Y29669D01*
X440110Y29647D01*
X440222Y29621D01*
X440334Y29592D01*
X440444Y29559D01*
X440553Y29522D01*
X440661Y29481D01*
X440767Y29436D01*
X440872Y29388D01*
X440974Y29337D01*
X441075Y29281D01*
X441175Y29223D01*
X441272Y29161D01*
X441366Y29096D01*
X441459Y29027D01*
X441549Y28955D01*
X441637Y28881D01*
X441722Y28803D01*
X441804Y28722D01*
X441883Y28639D01*
X441960Y28553D01*
X442033Y28464D01*
X442104Y28373D01*
X442171Y28279D01*
X442235Y28184D01*
X442296Y28086D01*
X442353Y27986D01*
X442406Y27884D01*
X442457Y27780D01*
X442503Y27675D01*
X442546Y27568D01*
X442585Y27460D01*
X442722Y27171D01*
X442852Y26879D01*
X442975Y26583D01*
X443090Y26285D01*
X443199Y25984D01*
X443300Y25681D01*
X443394Y25375D01*
X443481Y25068D01*
X443560Y24758D01*
X443632Y24446D01*
X443696Y24133D01*
X443753Y23818D01*
X443803Y23502D01*
X443845Y23185D01*
X443879Y22867D01*
X443906Y22549D01*
X443925Y22229D01*
X443936Y21910D01*
X443940Y21590D01*
X434909Y21590D02*
X434913Y21270D01*
X434924Y20951D01*
X434943Y20631D01*
X434970Y20313D01*
X435004Y19995D01*
X435046Y19678D01*
X435096Y19362D01*
X435153Y19047D01*
X435217Y18734D01*
X435289Y18422D01*
X435368Y18112D01*
X435455Y17805D01*
X435549Y17499D01*
X435650Y17196D01*
X435759Y16895D01*
X435874Y16597D01*
X435997Y16301D01*
X436127Y16009D01*
X436264Y15720D01*
X436263Y15720D02*
X436302Y15612D01*
X436345Y15505D01*
X436391Y15400D01*
X436442Y15296D01*
X436495Y15194D01*
X436552Y15094D01*
X436613Y14996D01*
X436677Y14901D01*
X436744Y14807D01*
X436815Y14716D01*
X436888Y14627D01*
X436965Y14541D01*
X437044Y14458D01*
X437126Y14377D01*
X437211Y14299D01*
X437299Y14225D01*
X437389Y14153D01*
X437482Y14084D01*
X437576Y14019D01*
X437673Y13957D01*
X437773Y13899D01*
X437874Y13843D01*
X437976Y13792D01*
X438081Y13744D01*
X438187Y13699D01*
X438295Y13658D01*
X438404Y13621D01*
X438514Y13588D01*
X438626Y13559D01*
X438738Y13533D01*
X438851Y13511D01*
X438965Y13494D01*
X439079Y13480D01*
X439194Y13470D01*
X439309Y13464D01*
X439424Y13462D01*
X442585Y15720D02*
X442722Y16009D01*
X442852Y16301D01*
X442975Y16597D01*
X443090Y16895D01*
X443199Y17196D01*
X443300Y17499D01*
X443394Y17805D01*
X443481Y18112D01*
X443560Y18422D01*
X443632Y18734D01*
X443696Y19047D01*
X443753Y19362D01*
X443803Y19678D01*
X443845Y19995D01*
X443879Y20313D01*
X443906Y20631D01*
X443925Y20951D01*
X443936Y21270D01*
X443940Y21590D01*
X442585Y15720D02*
X442546Y15612D01*
X442503Y15505D01*
X442457Y15400D01*
X442406Y15296D01*
X442353Y15194D01*
X442296Y15094D01*
X442235Y14996D01*
X442171Y14901D01*
X442104Y14807D01*
X442033Y14716D01*
X441960Y14627D01*
X441883Y14541D01*
X441804Y14458D01*
X441722Y14377D01*
X441637Y14299D01*
X441549Y14225D01*
X441459Y14153D01*
X441366Y14084D01*
X441272Y14019D01*
X441175Y13957D01*
X441075Y13899D01*
X440974Y13843D01*
X440871Y13792D01*
X440767Y13744D01*
X440661Y13699D01*
X440553Y13658D01*
X440444Y13621D01*
X440334Y13588D01*
X440222Y13559D01*
X440110Y13533D01*
X439997Y13511D01*
X439883Y13494D01*
X439769Y13480D01*
X439654Y13470D01*
X439539Y13464D01*
X439424Y13462D01*
X435812Y17074D02*
X443037Y26106D01*
X455507Y29718D02*
X455632Y29716D01*
X455757Y29710D01*
X455882Y29701D01*
X456006Y29687D01*
X456130Y29670D01*
X456254Y29649D01*
X456376Y29624D01*
X456498Y29595D01*
X456619Y29563D01*
X456739Y29527D01*
X456858Y29487D01*
X456975Y29444D01*
X457091Y29397D01*
X457206Y29346D01*
X457318Y29292D01*
X457430Y29234D01*
X457539Y29174D01*
X457646Y29109D01*
X457752Y29042D01*
X457855Y28971D01*
X457956Y28897D01*
X458055Y28820D01*
X458151Y28740D01*
X458245Y28657D01*
X458336Y28572D01*
X458425Y28483D01*
X458510Y28392D01*
X458593Y28298D01*
X458673Y28202D01*
X458750Y28103D01*
X458824Y28002D01*
X458895Y27899D01*
X458962Y27793D01*
X459027Y27686D01*
X459087Y27577D01*
X459145Y27465D01*
X459199Y27353D01*
X459250Y27238D01*
X459297Y27122D01*
X459340Y27005D01*
X459380Y26886D01*
X459416Y26766D01*
X459448Y26645D01*
X459477Y26523D01*
X459502Y26401D01*
X459523Y26277D01*
X459540Y26153D01*
X459554Y26029D01*
X459563Y25904D01*
X459569Y25779D01*
X459571Y25654D01*
X455507Y29718D02*
X455364Y29716D01*
X455222Y29710D01*
X455079Y29700D01*
X454937Y29687D01*
X454796Y29669D01*
X454654Y29648D01*
X454514Y29623D01*
X454374Y29594D01*
X454235Y29561D01*
X454097Y29524D01*
X453960Y29484D01*
X453825Y29440D01*
X453690Y29392D01*
X453557Y29340D01*
X453425Y29285D01*
X453295Y29226D01*
X453167Y29164D01*
X453040Y29098D01*
X452915Y29029D01*
X452792Y28957D01*
X452672Y28881D01*
X452553Y28802D01*
X452436Y28719D01*
X452322Y28634D01*
X452210Y28545D01*
X452101Y28454D01*
X451994Y28359D01*
X451889Y28262D01*
X451788Y28161D01*
X451689Y28058D01*
X451593Y27953D01*
X451500Y27844D01*
X451410Y27733D01*
X451323Y27620D01*
X451239Y27505D01*
X451159Y27387D01*
X451081Y27267D01*
X451007Y27145D01*
X450937Y27021D01*
X450869Y26895D01*
X450806Y26767D01*
X450745Y26638D01*
X450688Y26507D01*
X450635Y26375D01*
X450586Y26241D01*
X450540Y26106D01*
X458216Y22493D02*
X458310Y22585D01*
X458400Y22679D01*
X458488Y22776D01*
X458573Y22876D01*
X458655Y22978D01*
X458734Y23083D01*
X458809Y23190D01*
X458881Y23299D01*
X458950Y23410D01*
X459016Y23524D01*
X459078Y23639D01*
X459137Y23756D01*
X459192Y23875D01*
X459243Y23995D01*
X459291Y24117D01*
X459336Y24240D01*
X459376Y24364D01*
X459413Y24490D01*
X459446Y24617D01*
X459475Y24744D01*
X459501Y24873D01*
X459522Y25002D01*
X459540Y25132D01*
X459553Y25262D01*
X459563Y25392D01*
X459569Y25523D01*
X459571Y25654D01*
X458217Y22493D02*
X450540Y13462D01*
X459571Y13462D01*
X466171Y26106D02*
X470687Y29718D01*
X470687Y13462D01*
X475202Y13462D02*
X466171Y13462D01*
D11*
X438912Y622300D02*
X424688Y622300D01*
X424688Y596900D02*
X438912Y596900D01*
X438912Y571500D02*
X424688Y571500D01*
X424688Y546100D02*
X438912Y546100D01*
X438912Y520700D02*
X424688Y520700D01*
X424688Y495300D02*
X438912Y495300D01*
X438912Y469900D02*
X424688Y469900D01*
X424688Y444500D02*
X438912Y444500D01*
X438912Y419100D02*
X424688Y419100D01*
X424688Y393700D02*
X438912Y393700D01*
X438912Y368300D02*
X424688Y368300D01*
X424688Y342900D02*
X438912Y342900D01*
X438912Y317500D02*
X424688Y317500D01*
X424688Y292100D02*
X438912Y292100D01*
X500888Y292100D02*
X515112Y292100D01*
X515112Y317500D02*
X500888Y317500D01*
X500888Y342900D02*
X515112Y342900D01*
X515112Y368300D02*
X500888Y368300D01*
X500888Y393700D02*
X515112Y393700D01*
X515112Y419100D02*
X500888Y419100D01*
X500888Y444500D02*
X515112Y444500D01*
X515112Y469900D02*
X500888Y469900D01*
X500888Y495300D02*
X515112Y495300D01*
X515112Y520700D02*
X500888Y520700D01*
X500888Y546100D02*
X515112Y546100D01*
X515112Y571500D02*
X500888Y571500D01*
X500888Y596900D02*
X515112Y596900D01*
X515112Y622300D02*
X500888Y622300D01*
D12*
X61290Y725470D03*
X61290Y718970D03*
X61290Y712470D03*
X61290Y705970D03*
X61290Y699470D03*
D13*
X61290Y737870D03*
X61290Y687070D03*
D14*
X34290Y747470D03*
X34290Y677470D03*
D15*
X142400Y520700D03*
X162400Y520700D03*
D16*
X76200Y571900D03*
X76200Y596900D03*
X76200Y621900D03*
D17*
X152400Y762000D03*
X177800Y762000D03*
X203200Y762000D03*
X228600Y762000D03*
D18*
X444500Y711200D03*
X469900Y711200D03*
X495300Y749300D03*
X596900Y749300D03*
D17*
X355600Y685800D03*
X355600Y660400D03*
X355600Y635000D03*
X355600Y609600D03*
X355600Y584200D03*
D16*
X317900Y762000D03*
X367900Y762000D03*
D19*
X292100Y596900D03*
X292100Y698500D03*
D20*
X635000Y723900D03*
X635000Y698500D03*
D21*
X596900Y520700D03*
D19*
X596900Y571500D03*
D20*
X711200Y546100D03*
X711200Y520700D03*
D22*
X38100Y279400D03*
X38100Y304800D03*
X38100Y330200D03*
X38100Y355600D03*
X38100Y381000D03*
X38100Y406400D03*
D16*
X88900Y266700D03*
X88900Y292100D03*
X88900Y317500D03*
X88900Y342900D03*
X88900Y368300D03*
X88900Y393700D03*
X88900Y419100D03*
D11*
X792988Y774700D02*
X807212Y774700D01*
X807212Y749300D02*
X792988Y749300D01*
X792988Y723900D02*
X807212Y723900D01*
X807212Y698500D02*
X792988Y698500D01*
X792988Y673100D02*
X807212Y673100D01*
X807212Y647700D02*
X792988Y647700D01*
X792988Y622300D02*
X807212Y622300D01*
X807212Y596900D02*
X792988Y596900D01*
X792988Y571500D02*
X807212Y571500D01*
X807212Y546100D02*
X792988Y546100D01*
X792988Y520700D02*
X807212Y520700D01*
X807212Y495300D02*
X792988Y495300D01*
X792988Y469900D02*
X807212Y469900D01*
X807212Y444500D02*
X792988Y444500D01*
X869188Y444500D02*
X883412Y444500D01*
X883412Y469900D02*
X869188Y469900D01*
X869188Y495300D02*
X883412Y495300D01*
X883412Y520700D02*
X869188Y520700D01*
X869188Y546100D02*
X883412Y546100D01*
X883412Y571500D02*
X869188Y571500D01*
X869188Y596900D02*
X883412Y596900D01*
X883412Y622300D02*
X869188Y622300D01*
X869188Y647700D02*
X883412Y647700D01*
X883412Y673100D02*
X869188Y673100D01*
X869188Y698500D02*
X883412Y698500D01*
X883412Y723900D02*
X869188Y723900D01*
X869188Y749300D02*
X883412Y749300D01*
X883412Y774700D02*
X869188Y774700D01*
D19*
X241300Y533400D03*
X241300Y558800D03*
X609600Y330200D03*
X609600Y431800D03*
X711200Y342900D03*
X711200Y444500D03*
D23*
X914400Y241300D03*
X812800Y241300D03*
D18*
X901700Y317500D03*
X927100Y317500D03*
X723900Y292100D03*
X825500Y292100D03*
D16*
X685400Y292100D03*
X635400Y292100D03*
D22*
X469900Y812800D03*
X546100Y812800D03*
X546100Y838200D03*
X469900Y838200D03*
X469900Y863600D03*
X546100Y863600D03*
X546100Y889000D03*
X546100Y914400D03*
X546100Y939800D03*
X546100Y965200D03*
X469900Y965200D03*
X469900Y939800D03*
X469900Y914400D03*
X469900Y889000D03*
D17*
X393700Y838200D03*
X393700Y863600D03*
X393700Y927100D03*
X393700Y952500D03*
D24*
X228600Y63500D03*
X203200Y63500D03*
X228600Y88900D03*
X203200Y88900D03*
X228600Y114300D03*
X203200Y114300D03*
X228600Y139700D03*
X203200Y139700D03*
X228600Y165100D03*
X203200Y165100D03*
X228600Y190500D03*
X203200Y190500D03*
X228600Y215900D03*
X203200Y215900D03*
X228600Y241300D03*
X203200Y241300D03*
X228600Y266700D03*
X203200Y266700D03*
X228600Y292100D03*
X203200Y292100D03*
X228600Y317500D03*
X203200Y317500D03*
D19*
X406400Y38100D03*
X406400Y139700D03*
X406400Y165100D03*
X406400Y266700D03*
D17*
X139700Y88900D03*
X152400Y215900D03*
X304800Y241300D03*
X685800Y749300D03*
X736600Y723900D03*
X698500Y698500D03*
X698500Y660400D03*
X698500Y622300D03*
X711200Y584200D03*
X939800Y762000D03*
X939800Y723900D03*
X939800Y685800D03*
X685800Y25400D03*
X685800Y50800D03*
X685800Y76200D03*
X685800Y101600D03*
X685800Y127000D03*
X685800Y152400D03*
X685800Y177800D03*
X685800Y203200D03*
X711200Y25400D03*
X711200Y50800D03*
X711200Y76200D03*
X711200Y101600D03*
X711200Y127000D03*
X711200Y152400D03*
X711200Y177800D03*
X711200Y203200D03*
X736600Y25400D03*
X736600Y50800D03*
X736600Y76200D03*
X736600Y101600D03*
X736600Y127000D03*
X736600Y152400D03*
X736600Y177800D03*
X736600Y203200D03*
X762000Y25400D03*
X762000Y50800D03*
X762000Y76200D03*
X762000Y101600D03*
X762000Y127000D03*
X762000Y152400D03*
X762000Y177800D03*
X762000Y203200D03*
X787400Y25400D03*
X787400Y50800D03*
X787400Y76200D03*
X787400Y101600D03*
X787400Y127000D03*
X787400Y152400D03*
X787400Y177800D03*
X787400Y203200D03*
X812800Y25400D03*
X812800Y50800D03*
X812800Y76200D03*
X812800Y101600D03*
X812800Y127000D03*
X812800Y152400D03*
X812800Y177800D03*
X812800Y203200D03*
X838200Y25400D03*
X838200Y50800D03*
X838200Y76200D03*
X838200Y101600D03*
X838200Y127000D03*
X838200Y152400D03*
X838200Y177800D03*
X838200Y203200D03*
X863600Y25400D03*
X863600Y50800D03*
X863600Y76200D03*
X863600Y101600D03*
X863600Y127000D03*
X863600Y152400D03*
X863600Y177800D03*
X863600Y203200D03*
X889000Y25400D03*
X889000Y50800D03*
X889000Y76200D03*
X889000Y101600D03*
X889000Y127000D03*
X889000Y152400D03*
X889000Y177800D03*
X889000Y203200D03*
X914400Y25400D03*
X914400Y50800D03*
X914400Y76200D03*
X914400Y101600D03*
X914400Y127000D03*
X914400Y152400D03*
X914400Y177800D03*
X914400Y203200D03*
X622300Y25400D03*
X622300Y50800D03*
X622300Y76200D03*
X622300Y101600D03*
X622300Y127000D03*
X622300Y152400D03*
X622300Y177800D03*
X622300Y203200D03*
X647700Y25400D03*
X647700Y50800D03*
X647700Y76200D03*
X647700Y101600D03*
X647700Y127000D03*
X647700Y152400D03*
X647700Y177800D03*
X647700Y203200D03*
X977900Y25400D03*
X977900Y50800D03*
X977900Y76200D03*
X977900Y101600D03*
X977900Y127000D03*
X977900Y152400D03*
X977900Y177800D03*
X977900Y203200D03*
X952500Y25400D03*
X952500Y50800D03*
X952500Y76200D03*
X952500Y101600D03*
X952500Y127000D03*
X952500Y152400D03*
X952500Y177800D03*
X952500Y203200D03*
D25*
X73990Y725470D02*
X61290Y725470D01*
X73990Y725470D02*
X76200Y727680D01*
X76200Y571900D01*
X164846Y749046D02*
X177800Y762000D01*
X164846Y749046D02*
X68401Y749046D01*
X61290Y700001D02*
X28080Y700001D01*
X68401Y749046D02*
X42471Y774976D01*
X6784Y774976D01*
X6784Y721297D01*
X28080Y700001D01*
D26*
X72267Y250067D03*
D25*
X88900Y266700D01*
X203200Y63500D02*
X202946Y63246D01*
X121634Y63246D01*
X94262Y228073D02*
X72267Y250067D01*
X94262Y228073D02*
X94262Y90618D01*
X121634Y63246D01*
X340788Y762000D02*
X367900Y762000D01*
X340788Y762000D02*
X324604Y778184D01*
X184880Y762000D02*
X177800Y762000D01*
X184880Y762000D02*
X201064Y778184D01*
X324604Y778184D01*
X355600Y635000D02*
X390225Y635000D01*
X390725Y634500D01*
X390725Y632025D01*
D26*
X390725Y632025D03*
D25*
X180500Y558800D02*
X142400Y520700D01*
X180500Y558800D02*
X241300Y558800D01*
X254935Y572435D01*
X254935Y575693D01*
X311266Y609600D02*
X314383Y612717D01*
X288842Y609600D02*
X254935Y575693D01*
X288842Y609600D02*
X311266Y609600D01*
X314383Y612717D02*
X314383Y625417D01*
X312311Y627489D01*
D26*
X312311Y627489D03*
X337538Y622300D03*
D25*
X342900Y622300D01*
X337538Y622300D02*
X335788Y622300D01*
D26*
X312311Y627489D03*
D25*
X312311Y642511D01*
X324612Y654812D01*
X324612Y660400D01*
X322862Y660400D01*
D26*
X322862Y660400D03*
X337538Y652716D03*
D25*
X355254Y635000D01*
X355600Y635000D01*
X647700Y50800D02*
X647700Y25400D01*
X647700Y50800D02*
X647700Y76200D01*
X647700Y101600D01*
X647700Y127000D01*
X647700Y152400D01*
X647700Y177800D01*
X647700Y203200D01*
X977900Y50800D02*
X977900Y25400D01*
X977900Y50800D02*
X977900Y76200D01*
X977900Y101600D01*
X977900Y127000D01*
X977900Y152400D01*
X977900Y177800D01*
X977900Y203200D01*
X900032Y241300D02*
X812800Y241300D01*
X900032Y241300D02*
X910192Y231140D01*
X949960Y231140D02*
X977900Y203200D01*
X949960Y231140D02*
X910192Y231140D01*
X812800Y241300D02*
X787654Y216154D01*
X667480Y203200D02*
X647700Y203200D01*
X680434Y216154D02*
X787654Y216154D01*
X680434Y216154D02*
X667480Y203200D01*
X647700Y203200D02*
X635400Y215500D01*
X635400Y292100D01*
X810912Y421640D02*
X829564Y440292D01*
X663340Y320040D02*
X635400Y292100D01*
X734060Y421640D02*
X810912Y421640D01*
X637540Y530860D02*
X596900Y571500D01*
X663340Y320040D02*
X734060Y320040D01*
X734060Y421640D01*
X829564Y530860D02*
X637540Y530860D01*
X829564Y530860D02*
X829564Y440292D01*
X504952Y587248D02*
X444500Y647700D01*
X504952Y587248D02*
X546527Y587248D01*
X562275Y571500D02*
X596900Y571500D01*
X562275Y571500D02*
X546527Y587248D01*
X444726Y647700D02*
X444500Y647700D01*
D26*
X444726Y647700D03*
X370304Y655038D03*
D25*
X368554Y653288D01*
D26*
X370304Y655038D03*
D25*
X203200Y723900D02*
X76200Y596900D01*
X203200Y723900D02*
X203200Y762000D01*
X952500Y203200D02*
X952500Y177800D01*
X952500Y152400D01*
X952500Y127000D01*
X952500Y101600D01*
X952500Y76200D01*
X952500Y50800D01*
X952500Y25400D01*
X266700Y241300D02*
X228600Y241300D01*
X711200Y546100D02*
X736600Y571500D01*
X800100Y571500D01*
X825500Y571500D01*
X876300Y520700D01*
X711200Y546100D02*
X647700Y546100D01*
X571500Y622300D01*
X508000Y622300D01*
X622300Y342900D02*
X609600Y330200D01*
X622300Y342900D02*
X711200Y342900D01*
X470270Y317500D02*
X431800Y317500D01*
X497188Y353060D02*
X518812Y353060D01*
X487028Y342900D02*
X469900Y342900D01*
X487028Y342900D02*
X497188Y353060D01*
X541672Y330200D02*
X609600Y330200D01*
X541672Y330200D02*
X518812Y353060D01*
X508000Y622300D02*
X444500Y685800D01*
X444500Y711200D01*
D26*
X469900Y342900D03*
D25*
X622300Y203200D02*
X622300Y177800D01*
X622300Y152400D01*
X622300Y127000D01*
X622300Y101600D01*
X622300Y76200D01*
X622300Y50800D01*
X622300Y25400D01*
X342900Y698500D02*
X292100Y698500D01*
X342900Y698500D02*
X355600Y685800D01*
X431800Y685800D01*
X431800Y622300D01*
X292100Y698500D02*
X292100Y736200D01*
X317900Y762000D01*
X203200Y165100D02*
X127000Y165100D01*
D26*
X127000Y165100D03*
X267861Y570339D03*
D25*
X298623Y570339D01*
X307123Y578838D01*
X324838Y578838D02*
X355600Y609600D01*
X324838Y578838D02*
X307123Y578838D01*
X317500Y165100D02*
X228600Y165100D01*
D26*
X317500Y165100D03*
D25*
X114300Y368300D02*
X88900Y342900D01*
X335562Y368300D02*
X342900Y368300D01*
D26*
X335562Y368300D03*
D25*
X114300Y368300D01*
X495300Y558800D02*
X508000Y571500D01*
X245508Y523240D02*
X243840Y523240D01*
X88900Y368300D01*
X245508Y523240D02*
X281068Y558800D01*
X495300Y558800D01*
X50800Y342900D02*
X38100Y330200D01*
X50800Y342900D02*
X76200Y368300D01*
X88900Y368300D01*
D27*
X50800Y342900D03*
D25*
X76200Y342900D01*
X88900Y317500D02*
X101600Y330200D01*
X130975Y330200D01*
X161963Y361188D01*
X323088Y361188D02*
X324612Y362712D01*
X337312Y375412D01*
X330200Y362712D02*
X324612Y362712D01*
D26*
X330200Y673100D03*
D25*
X26894Y325558D02*
X33458Y318994D01*
X26894Y325558D02*
X26894Y334842D01*
X33458Y341406D01*
X41403Y341406D01*
X119662Y498340D02*
X123961Y502638D01*
X260523Y573378D02*
X264822Y577677D01*
X337312Y375412D02*
X136397Y375412D01*
X119662Y409477D02*
X89081Y378896D01*
X119662Y409477D02*
X119662Y498340D01*
X78893Y378896D02*
X41403Y341406D01*
X78893Y378896D02*
X89081Y378896D01*
X123961Y502638D02*
X196170Y502638D01*
X264822Y577677D02*
X287245Y577677D01*
X330200Y620632D01*
X330200Y673100D01*
X237092Y543560D02*
X196170Y502638D01*
X237092Y543560D02*
X240428Y543560D01*
X260523Y563655D01*
X260523Y573378D01*
X136397Y375412D02*
X79979Y318994D01*
X33458Y318994D01*
X161963Y361188D02*
X323088Y361188D01*
D26*
X363695Y647700D03*
D25*
X420988Y612140D02*
X442612Y612140D01*
X448564Y618092D01*
X448564Y626508D01*
X322289Y772596D02*
X313511Y772596D01*
X281940Y694292D02*
X287892Y688340D01*
X437388Y688115D02*
X437388Y637684D01*
X448564Y626508D01*
X385428Y647700D02*
X363695Y647700D01*
X385428Y647700D02*
X420988Y612140D01*
X437388Y688115D02*
X426749Y698754D01*
X313511Y772596D02*
X281940Y741025D01*
X281940Y694292D01*
X406400Y698754D02*
X426749Y698754D01*
X406400Y698754D02*
X396131Y698754D01*
X322289Y772596D01*
X314960Y688340D02*
X287892Y688340D01*
X314960Y688340D02*
X330200Y673100D01*
X406400Y698754D02*
X406400Y749300D01*
D26*
X177800Y431800D03*
D25*
X444500Y431800D01*
X508000Y495300D01*
X609600Y431800D02*
X673100Y495300D01*
X800100Y495300D01*
X736600Y469900D02*
X711200Y444500D01*
X736600Y469900D02*
X800100Y469900D01*
X711200Y444500D02*
X636668Y444500D01*
X613808Y421640D01*
X561340Y421640D02*
X508000Y368300D01*
X561340Y421640D02*
X613808Y421640D01*
X876300Y596900D02*
X901700Y571500D01*
X901700Y317500D01*
X914400Y304800D02*
X914400Y241300D01*
X914400Y304800D02*
X927100Y317500D01*
X713740Y292100D02*
X685400Y292100D01*
X713740Y292100D02*
X713740Y296308D01*
X719692Y302260D01*
X728108Y302260D01*
X738268Y292100D02*
X825500Y292100D01*
X738268Y292100D02*
X728108Y302260D01*
X821072Y698500D02*
X876300Y698500D01*
X821072Y698500D02*
X810912Y708660D01*
X703866Y711454D02*
X672846Y711454D01*
X703866Y711454D02*
X706660Y708660D01*
X810912Y708660D01*
X546100Y904848D02*
X546100Y914400D01*
X562894Y888054D02*
X562894Y821406D01*
X562894Y888054D02*
X546100Y904848D01*
X562894Y821406D02*
X672846Y711454D01*
X821072Y673100D02*
X876300Y673100D01*
X821072Y673100D02*
X810912Y683260D01*
X688340Y683260D01*
X645160Y726440D02*
X645160Y728108D01*
X639208Y734060D01*
X887112Y612140D02*
X893064Y618092D01*
X546100Y879448D02*
X546100Y889000D01*
X630792Y734060D02*
X639208Y734060D01*
X893064Y651908D02*
X893064Y618092D01*
X887112Y612140D02*
X757460Y612140D01*
X716566Y571246D01*
X810912Y683260D02*
X861712Y683260D01*
X893064Y651908D01*
X516606Y694691D02*
X516606Y849954D01*
X546100Y879448D01*
X635872Y683260D02*
X688340Y683260D01*
X630792Y734060D02*
X624840Y728108D01*
X624840Y694292D01*
X635872Y683260D01*
X640051Y571246D02*
X716566Y571246D01*
X640051Y571246D02*
X516606Y694691D01*
X645160Y726440D02*
X688340Y683260D01*
X821072Y647700D02*
X876300Y647700D01*
X821072Y647700D02*
X810912Y657860D01*
X703866Y647446D02*
X622554Y647446D01*
X714280Y657860D02*
X810912Y657860D01*
X714280Y657860D02*
X703866Y647446D01*
X546100Y854048D02*
X546100Y863600D01*
X546100Y854048D02*
X557306Y842842D01*
X557306Y712694D01*
X622554Y647446D01*
X821072Y622300D02*
X876300Y622300D01*
X667480Y622300D02*
X609600Y622300D01*
X810912Y632460D02*
X821072Y622300D01*
X692150Y597630D02*
X667480Y622300D01*
X726980Y632460D02*
X810912Y632460D01*
X726980Y632460D02*
X692150Y597630D01*
X546100Y828648D02*
X546100Y838200D01*
X546100Y828648D02*
X534894Y817442D01*
X534894Y697006D02*
X609600Y622300D01*
X534894Y697006D02*
X534894Y817442D01*
X444500Y914400D02*
X393700Y863600D01*
X444500Y914400D02*
X469900Y914400D01*
X457200Y838200D02*
X393700Y838200D01*
X457200Y838200D02*
X458694Y839694D01*
X469900Y879448D02*
X469900Y889000D01*
X469900Y879448D02*
X458694Y868242D01*
X458694Y839694D01*
X421640Y281940D02*
X406400Y266700D01*
X421640Y281940D02*
X442612Y281940D01*
X478172Y317500D02*
X508000Y317500D01*
X478172Y317500D02*
X442612Y281940D01*
D26*
X457200Y215900D03*
D25*
X406400Y266700D01*
X393700Y88900D02*
X228600Y88900D01*
X393700Y88900D02*
X393700Y139700D01*
X406400Y139700D01*
X342900Y139700D02*
X228600Y139700D01*
D26*
X342900Y139700D03*
X342900Y469900D03*
D25*
X431800Y469900D01*
X368300Y190500D02*
X228600Y190500D01*
D26*
X368300Y190500D03*
D25*
X292100Y215900D02*
X228600Y215900D01*
D26*
X292100Y215900D03*
X310162Y571500D03*
D25*
X349980Y571500D01*
X350234Y571246D01*
X360966Y571246D01*
X361220Y571500D01*
X431800Y571500D01*
X203200Y139700D02*
X114300Y139700D01*
D26*
X114300Y139700D03*
X127000Y495300D03*
D25*
X207997Y495300D01*
X211949Y499251D01*
X209550Y501650D01*
D26*
X209550Y501650D03*
X221089Y490111D03*
D25*
X426611Y490111D01*
X431800Y495300D01*
X203200Y190500D02*
X139700Y190500D01*
D26*
X139700Y190500D03*
X190500Y444500D03*
D25*
X497188Y505460D02*
X518812Y505460D01*
X537464Y486808D01*
X537464Y478392D02*
X518812Y459740D01*
X493043Y459740D02*
X459515Y426212D01*
X438912Y426212D01*
X431800Y419100D01*
X493043Y459740D02*
X518812Y459740D01*
X200660Y454660D02*
X190500Y444500D01*
X200660Y454660D02*
X446388Y454660D01*
X497188Y505460D01*
X537464Y486808D02*
X537464Y478392D01*
X171958Y342900D02*
X171958Y254222D01*
X171958Y342900D02*
X381000Y342900D01*
X203200Y222980D02*
X203200Y215900D01*
X203200Y222980D02*
X171958Y254222D01*
X326075Y397825D02*
X381000Y342900D01*
X326075Y397825D02*
X201398Y397825D01*
D26*
X431800Y596900D03*
D25*
X197099Y408202D02*
X197099Y402123D01*
X201398Y397825D01*
X497188Y530860D02*
X518812Y530860D01*
X420988Y510540D02*
X415036Y516492D01*
X415036Y524908D01*
X518812Y535940D02*
X524764Y541892D01*
X524764Y575708D02*
X518812Y581660D01*
X518812Y408940D02*
X480343Y408940D01*
X447040Y581660D02*
X431800Y596900D01*
X447040Y581660D02*
X518812Y581660D01*
X213585Y424688D02*
X197099Y408202D01*
X454943Y383540D02*
X480343Y408940D01*
X555752Y493920D02*
X518812Y530860D01*
X426068Y535940D02*
X415036Y524908D01*
X426068Y535940D02*
X518812Y535940D01*
X497188Y530860D02*
X476868Y510540D01*
X420988Y510540D01*
X524764Y541892D02*
X524764Y575708D01*
X215683Y383540D02*
X201398Y397825D01*
X215683Y383540D02*
X454943Y383540D01*
X518812Y408940D02*
X555752Y445880D01*
X555752Y493920D01*
X406400Y426212D02*
X404876Y424688D01*
X213585Y424688D01*
X228600Y292100D02*
X431800Y292100D01*
X410828Y317500D02*
X228600Y317500D01*
X530860Y327660D02*
X533400Y330200D01*
X420988Y327660D02*
X410828Y317500D01*
X420988Y327660D02*
X530860Y327660D01*
X472440Y408940D02*
X508000Y444500D01*
D26*
X204437Y405163D03*
D25*
X208215Y408940D01*
X472440Y408940D01*
X190246Y322866D02*
X190246Y286734D01*
X190246Y322866D02*
X197580Y330200D01*
X419100Y330200D01*
X431800Y342900D01*
X203200Y273780D02*
X203200Y266700D01*
X203200Y273780D02*
X190246Y286734D01*
X228600Y114300D02*
X375412Y114300D01*
X375412Y142015D02*
X385797Y152400D01*
X469900Y152400D01*
X469900Y292100D01*
X375412Y142015D02*
X375412Y114300D01*
D26*
X469900Y292100D03*
D25*
X177800Y88900D02*
X139700Y88900D01*
X177800Y88900D02*
X203200Y114300D01*
X228600Y266700D02*
X279400Y266700D01*
X304800Y241300D01*
X685800Y749300D02*
X800100Y749300D01*
X800100Y723900D02*
X736600Y723900D01*
X698500Y698500D02*
X800100Y698500D01*
X711200Y673100D02*
X698500Y660400D01*
X711200Y673100D02*
X800100Y673100D01*
X723900Y647700D02*
X698500Y622300D01*
X723900Y647700D02*
X800100Y647700D01*
X749300Y622300D02*
X711200Y584200D01*
X749300Y622300D02*
X800100Y622300D01*
X711200Y584200D02*
X704342Y591058D01*
X647700Y591058D01*
X889000Y762000D02*
X939800Y762000D01*
X889000Y762000D02*
X876300Y774700D01*
X901700Y723900D02*
X939800Y723900D01*
X901700Y723900D02*
X876300Y749300D01*
X914400Y685800D02*
X939800Y685800D01*
X914400Y685800D02*
X876300Y723900D01*
X889000Y203200D02*
X914400Y203200D01*
X889000Y203200D02*
X863600Y203200D01*
X838200Y203200D01*
X812800Y203200D01*
X812800Y177800D02*
X838200Y177800D01*
X863600Y177800D01*
X889000Y177800D01*
X914400Y177800D01*
X914400Y152400D02*
X889000Y152400D01*
X863600Y152400D01*
X838200Y152400D01*
X812800Y152400D01*
X812800Y127000D02*
X838200Y127000D01*
X863600Y127000D01*
X889000Y127000D01*
X914400Y127000D01*
X914400Y101600D02*
X889000Y101600D01*
X863600Y101600D01*
X838200Y101600D01*
X812800Y101600D01*
X812800Y76200D02*
X838200Y76200D01*
X863600Y76200D01*
X889000Y76200D01*
X914400Y76200D01*
X914400Y50800D02*
X889000Y50800D01*
X863600Y50800D01*
X838200Y50800D01*
X812800Y50800D01*
X812800Y25400D02*
X838200Y25400D01*
X863600Y25400D01*
X889000Y25400D01*
X914400Y25400D01*
X711200Y203200D02*
X685800Y203200D01*
X711200Y203200D02*
X736600Y203200D01*
X762000Y203200D01*
X787400Y203200D01*
X787400Y177800D02*
X762000Y177800D01*
X736600Y177800D01*
X711200Y177800D01*
X685800Y177800D01*
X685800Y152400D02*
X711200Y152400D01*
X736600Y152400D01*
X762000Y152400D01*
X787400Y152400D01*
X787400Y127000D02*
X762000Y127000D01*
X736600Y127000D01*
X711200Y127000D01*
X685800Y127000D01*
X685800Y101600D02*
X711200Y101600D01*
X736600Y101600D01*
X762000Y101600D01*
X787400Y101600D01*
X787400Y76200D02*
X762000Y76200D01*
X736600Y76200D01*
X711200Y76200D01*
X685800Y76200D01*
X685800Y50800D02*
X711200Y50800D01*
X736600Y50800D01*
X762000Y50800D01*
X787400Y50800D01*
X711200Y25400D02*
X685800Y25400D01*
X711200Y25400D02*
X736600Y25400D01*
X762000Y25400D01*
X787400Y25400D01*
M02*
