G04 EAGLE Gerber RS-274X export*
G75*
%MOMM*%
%FSLAX34Y34*%
%LPD*%
%IN*%
%IPPOS*%
%AMOC8*
5,1,8,0,0,1.08239X$1,22.5*%
G01*
%ADD10C,0.254000*%


D10*
X0Y0D02*
X1000000Y0D01*
X1000000Y1000000D01*
X0Y1000000D01*
X0Y0D01*
X45600Y799732D02*
X45528Y798998D01*
X45384Y798275D01*
X45170Y797570D01*
X44888Y796889D01*
X44541Y796240D01*
X44131Y795627D01*
X43664Y795057D01*
X43143Y794536D01*
X42573Y794069D01*
X41960Y793659D01*
X41311Y793312D01*
X40630Y793030D01*
X39925Y792816D01*
X39202Y792672D01*
X38468Y792600D01*
X37732Y792600D01*
X36998Y792672D01*
X36275Y792816D01*
X35570Y793030D01*
X34889Y793312D01*
X34240Y793659D01*
X33627Y794069D01*
X33057Y794536D01*
X32536Y795057D01*
X32069Y795627D01*
X31659Y796240D01*
X31312Y796889D01*
X31030Y797570D01*
X30816Y798275D01*
X30672Y798998D01*
X30600Y799732D01*
X30600Y800468D01*
X30672Y801202D01*
X30816Y801925D01*
X31030Y802630D01*
X31312Y803311D01*
X31659Y803960D01*
X32069Y804573D01*
X32536Y805143D01*
X33057Y805664D01*
X33627Y806131D01*
X34240Y806541D01*
X34889Y806888D01*
X35570Y807170D01*
X36275Y807384D01*
X36998Y807528D01*
X37732Y807600D01*
X38468Y807600D01*
X39202Y807528D01*
X39925Y807384D01*
X40630Y807170D01*
X41311Y806888D01*
X41960Y806541D01*
X42573Y806131D01*
X43143Y805664D01*
X43664Y805143D01*
X44131Y804573D01*
X44541Y803960D01*
X44888Y803311D01*
X45170Y802630D01*
X45384Y801925D01*
X45528Y801202D01*
X45600Y800468D01*
X45600Y799732D01*
X45600Y977532D02*
X45528Y976798D01*
X45384Y976075D01*
X45170Y975370D01*
X44888Y974689D01*
X44541Y974040D01*
X44131Y973427D01*
X43664Y972857D01*
X43143Y972336D01*
X42573Y971869D01*
X41960Y971459D01*
X41311Y971112D01*
X40630Y970830D01*
X39925Y970616D01*
X39202Y970472D01*
X38468Y970400D01*
X37732Y970400D01*
X36998Y970472D01*
X36275Y970616D01*
X35570Y970830D01*
X34889Y971112D01*
X34240Y971459D01*
X33627Y971869D01*
X33057Y972336D01*
X32536Y972857D01*
X32069Y973427D01*
X31659Y974040D01*
X31312Y974689D01*
X31030Y975370D01*
X30816Y976075D01*
X30672Y976798D01*
X30600Y977532D01*
X30600Y978268D01*
X30672Y979002D01*
X30816Y979725D01*
X31030Y980430D01*
X31312Y981111D01*
X31659Y981760D01*
X32069Y982373D01*
X32536Y982943D01*
X33057Y983464D01*
X33627Y983931D01*
X34240Y984341D01*
X34889Y984688D01*
X35570Y984970D01*
X36275Y985184D01*
X36998Y985328D01*
X37732Y985400D01*
X38468Y985400D01*
X39202Y985328D01*
X39925Y985184D01*
X40630Y984970D01*
X41311Y984688D01*
X41960Y984341D01*
X42573Y983931D01*
X43143Y983464D01*
X43664Y982943D01*
X44131Y982373D01*
X44541Y981760D01*
X44888Y981111D01*
X45170Y980430D01*
X45384Y979725D01*
X45528Y979002D01*
X45600Y978268D01*
X45600Y977532D01*
X972700Y977532D02*
X972628Y976798D01*
X972484Y976075D01*
X972270Y975370D01*
X971988Y974689D01*
X971641Y974040D01*
X971231Y973427D01*
X970764Y972857D01*
X970243Y972336D01*
X969673Y971869D01*
X969060Y971459D01*
X968411Y971112D01*
X967730Y970830D01*
X967025Y970616D01*
X966302Y970472D01*
X965568Y970400D01*
X964832Y970400D01*
X964098Y970472D01*
X963375Y970616D01*
X962670Y970830D01*
X961989Y971112D01*
X961340Y971459D01*
X960727Y971869D01*
X960157Y972336D01*
X959636Y972857D01*
X959169Y973427D01*
X958759Y974040D01*
X958412Y974689D01*
X958130Y975370D01*
X957916Y976075D01*
X957772Y976798D01*
X957700Y977532D01*
X957700Y978268D01*
X957772Y979002D01*
X957916Y979725D01*
X958130Y980430D01*
X958412Y981111D01*
X958759Y981760D01*
X959169Y982373D01*
X959636Y982943D01*
X960157Y983464D01*
X960727Y983931D01*
X961340Y984341D01*
X961989Y984688D01*
X962670Y984970D01*
X963375Y985184D01*
X964098Y985328D01*
X964832Y985400D01*
X965568Y985400D01*
X966302Y985328D01*
X967025Y985184D01*
X967730Y984970D01*
X968411Y984688D01*
X969060Y984341D01*
X969673Y983931D01*
X970243Y983464D01*
X970764Y982943D01*
X971231Y982373D01*
X971641Y981760D01*
X971988Y981111D01*
X972270Y980430D01*
X972484Y979725D01*
X972628Y979002D01*
X972700Y978268D01*
X972700Y977532D01*
X972700Y812432D02*
X972628Y811698D01*
X972484Y810975D01*
X972270Y810270D01*
X971988Y809589D01*
X971641Y808940D01*
X971231Y808327D01*
X970764Y807757D01*
X970243Y807236D01*
X969673Y806769D01*
X969060Y806359D01*
X968411Y806012D01*
X967730Y805730D01*
X967025Y805516D01*
X966302Y805372D01*
X965568Y805300D01*
X964832Y805300D01*
X964098Y805372D01*
X963375Y805516D01*
X962670Y805730D01*
X961989Y806012D01*
X961340Y806359D01*
X960727Y806769D01*
X960157Y807236D01*
X959636Y807757D01*
X959169Y808327D01*
X958759Y808940D01*
X958412Y809589D01*
X958130Y810270D01*
X957916Y810975D01*
X957772Y811698D01*
X957700Y812432D01*
X957700Y813168D01*
X957772Y813902D01*
X957916Y814625D01*
X958130Y815330D01*
X958412Y816011D01*
X958759Y816660D01*
X959169Y817273D01*
X959636Y817843D01*
X960157Y818364D01*
X960727Y818831D01*
X961340Y819241D01*
X961989Y819588D01*
X962670Y819870D01*
X963375Y820084D01*
X964098Y820228D01*
X964832Y820300D01*
X965568Y820300D01*
X966302Y820228D01*
X967025Y820084D01*
X967730Y819870D01*
X968411Y819588D01*
X969060Y819241D01*
X969673Y818831D01*
X970243Y818364D01*
X970764Y817843D01*
X971231Y817273D01*
X971641Y816660D01*
X971988Y816011D01*
X972270Y815330D01*
X972484Y814625D01*
X972628Y813902D01*
X972700Y813168D01*
X972700Y812432D01*
M02*
